<svg width="180" height="160" viewBox="0 0 180 160" fill="none" xmlns="http://www.w3.org/2000/svg">
<path d="M86 0L160.478 120H11.5218L86 0Z" fill="url(#paint0_linear_1014_12)"/>
<path d="M49.392 96.768C44.848 96.768 41.104 95.904 38.16 94.176C35.216 92.384 33.616 90.016 33.36 87.072L36.144 86.304C36.144 88.48 37.36 90.304 39.792 91.776C42.288 93.184 45.488 93.888 49.392 93.888C53.424 93.888 56.688 93.152 59.184 91.68C61.744 90.208 63.024 88.32 63.024 86.016C63.024 83.84 61.968 82.08 59.856 80.736C57.744 79.392 54.864 78.208 51.216 77.184L45.264 75.456C37.328 73.152 31.344 70.24 27.312 66.72C23.28 63.2 21.264 58.368 21.264 52.224C21.264 47.808 22.48 43.904 24.912 40.512C27.408 37.056 30.768 34.336 34.992 32.352C39.28 30.368 44.112 29.376 49.488 29.376C54.352 29.376 58.736 30.176 62.64 31.776C66.608 33.312 69.872 35.52 72.432 38.4C75.056 41.28 76.72 44.64 77.424 48.48L74.64 49.248C74.064 45.856 72.624 42.88 70.32 40.32C68.016 37.76 65.072 35.776 61.488 34.368C57.904 32.96 53.904 32.256 49.488 32.256C44.624 32.256 40.272 33.152 36.432 34.944C32.656 36.672 29.648 39.04 27.408 42.048C25.232 45.056 24.144 48.512 24.144 52.416C24.144 57.664 25.968 61.888 29.616 65.088C33.328 68.224 38.8 70.784 46.032 72.768L51.984 74.4C56.4 75.616 59.824 77.088 62.256 78.816C64.688 80.544 65.904 82.88 65.904 85.824C65.904 89.088 64.4 91.744 61.392 93.792C58.384 95.776 54.384 96.768 49.392 96.768ZM49.392 103.104C43.376 103.104 38.32 101.792 34.224 99.168C30.192 96.48 27.824 92.992 27.12 88.704L30 87.936C30.512 91.648 32.496 94.624 35.952 96.864C39.472 99.104 43.952 100.224 49.392 100.224C53.36 100.224 56.848 99.616 59.856 98.4C62.864 97.184 65.2 95.488 66.864 93.312C68.528 91.136 69.36 88.64 69.36 85.824C69.36 81.92 67.888 78.848 64.944 76.608C62 74.304 57.936 72.448 52.752 71.04L46.896 69.408C40.688 67.68 35.92 65.504 32.592 62.88C29.264 60.256 27.6 56.768 27.6 52.416C27.6 49.152 28.528 46.272 30.384 43.776C32.304 41.28 34.928 39.328 38.256 37.92C41.584 36.448 45.328 35.712 49.488 35.712C53.392 35.712 56.88 36.32 59.952 37.536C63.088 38.688 65.648 40.352 67.632 42.528C69.616 44.704 70.832 47.232 71.28 50.112L68.4 50.88C67.952 47.168 65.968 44.192 62.448 41.952C58.992 39.712 54.672 38.592 49.488 38.592C45.84 38.592 42.576 39.2 39.696 40.416C36.816 41.568 34.544 43.2 32.88 45.312C31.28 47.36 30.48 49.728 30.48 52.416C30.48 56.064 31.92 58.944 34.8 61.056C37.744 63.168 42 65.024 47.568 66.624L53.328 68.256C59.28 69.92 63.92 72.128 67.248 74.88C70.576 77.568 72.24 81.216 72.24 85.824C72.24 89.216 71.28 92.224 69.36 94.848C67.44 97.408 64.752 99.424 61.296 100.896C57.904 102.368 53.936 103.104 49.392 103.104ZM49.392 109.44C44.4 109.44 39.888 108.672 35.856 107.136C31.888 105.536 28.592 103.328 25.968 100.512C23.408 97.632 21.744 94.24 20.976 90.336L23.76 89.568C24.4 93.024 25.84 96.032 28.08 98.592C30.384 101.088 33.36 103.04 37.008 104.448C40.656 105.856 44.784 106.56 49.392 106.56C54.64 106.56 59.216 105.696 63.12 103.968C67.088 102.176 70.16 99.744 72.336 96.672C74.576 93.536 75.696 89.92 75.696 85.824C75.696 80.384 73.808 76.032 70.032 72.768C66.256 69.504 60.944 66.88 54.096 64.896L48.432 63.264C43.76 61.92 40.176 60.448 37.68 58.848C35.184 57.248 33.936 55.104 33.936 52.416C33.936 49.28 35.408 46.784 38.352 44.928C41.296 43.008 45.008 42.048 49.488 42.048C53.84 42.048 57.424 42.944 60.24 44.736C63.056 46.528 64.656 48.864 65.04 51.744L62.256 52.512C62.128 50.272 60.88 48.448 58.512 47.04C56.208 45.632 53.2 44.928 49.488 44.928C45.968 44.928 42.96 45.6 40.464 46.944C38.032 48.288 36.816 50.048 36.816 52.224C36.816 54.208 37.936 55.808 40.176 57.024C42.48 58.24 45.488 59.392 49.2 60.48L54.672 62.112C62.416 64.416 68.336 67.424 72.432 71.136C76.528 74.784 78.576 79.744 78.576 86.016C78.576 90.56 77.328 94.624 74.832 98.208C72.4 101.728 68.976 104.48 64.56 106.464C60.208 108.448 55.152 109.44 49.392 109.44ZM115.071 96.768C111.423 96.768 108.383 96.032 105.951 94.56C103.583 93.088 101.791 91.136 100.575 88.704C99.423 86.208 98.847 83.456 98.847 80.448V30.816H101.727V80.448C101.727 84.16 102.783 87.328 104.895 89.952C107.007 92.576 110.399 93.888 115.071 93.888C119.743 93.888 123.135 92.576 125.247 89.952C127.359 87.328 128.415 84.16 128.415 80.448V30.816H131.295V80.448C131.295 83.456 130.687 86.208 129.471 88.704C128.319 91.136 126.527 93.088 124.095 94.56C121.727 96.032 118.719 96.768 115.071 96.768ZM115.071 109.44C109.119 109.44 103.967 108.16 99.615 105.6C95.327 102.976 91.999 99.456 89.631 95.04C87.327 90.624 86.175 85.76 86.175 80.448V30.816H89.055V80.448C89.055 85.248 90.079 89.632 92.127 93.6C94.239 97.568 97.215 100.736 101.055 103.104C104.959 105.408 109.631 106.56 115.071 106.56C120.511 106.56 125.151 105.408 128.991 103.104C132.895 100.736 135.871 97.568 137.919 93.6C140.031 89.632 141.087 85.248 141.087 80.448V30.816H143.967V80.448C143.967 85.76 142.783 90.624 140.415 95.04C138.111 99.456 134.815 102.976 130.527 105.6C126.239 108.16 121.087 109.44 115.071 109.44ZM115.071 103.104C110.271 103.104 106.175 102.08 102.783 100.032C99.455 97.984 96.895 95.264 95.103 91.872C93.375 88.416 92.511 84.608 92.511 80.448V30.816H95.391V80.448C95.391 84.096 96.127 87.424 97.599 90.432C99.135 93.376 101.375 95.744 104.319 97.536C107.263 99.328 110.847 100.224 115.071 100.224C119.359 100.224 122.943 99.328 125.823 97.536C128.767 95.744 130.975 93.376 132.447 90.432C133.983 87.424 134.751 84.096 134.751 80.448V30.816H137.631V80.448C137.631 84.608 136.735 88.416 134.943 91.872C133.215 95.264 130.655 97.984 127.263 100.032C123.935 102.08 119.871 103.104 115.071 103.104Z" fill="#A50E0E"/>
<path d="M19.5934 111.111C19.6657 111.243 19.7221 111.422 19.7624 111.647C19.8026 111.872 19.8395 112.083 19.8728 112.282C19.933 112.511 19.9671 112.677 19.975 112.778C19.9828 112.88 19.9807 112.979 19.9686 113.077C19.9741 113.169 19.9808 113.267 19.9887 113.368C19.9877 113.472 19.9868 113.576 19.9858 113.68C19.9849 113.784 19.9895 113.891 19.9996 114.002C20.001 114.114 20.0068 114.226 20.0169 114.336C20.0332 114.398 20.0494 114.46 20.0656 114.521C20.0795 114.574 20.0901 114.633 20.0975 114.697C20.1049 114.761 20.1168 114.824 20.133 114.885C20.1469 114.938 20.1619 114.996 20.1782 115.057C20.1967 115.128 20.2164 115.203 20.2372 115.282C20.2493 115.364 20.2625 115.45 20.2768 115.54C20.312 115.71 20.3802 115.862 20.4813 115.995C20.5532 116.09 20.655 116.19 20.7867 116.297C20.9073 116.397 21.0137 116.515 21.106 116.651C21.2702 116.702 21.3514 116.742 21.3495 116.771C21.3453 116.791 21.3578 116.82 21.3871 116.86C21.4835 116.976 21.6037 117.039 21.7475 117.048C21.9428 117.11 22.1703 117.097 22.4301 117.01C22.6988 116.92 22.937 116.877 23.1448 116.879C23.4571 116.74 23.7137 116.569 23.9146 116.365C23.9453 116.338 23.9759 116.311 24.0065 116.285C24.046 116.255 24.081 116.227 24.1116 116.2C24.1794 116.135 24.2316 116.065 24.2683 115.99C24.2998 115.859 24.3205 115.74 24.3303 115.634C24.3354 115.51 24.3515 115.374 24.3784 115.225C24.3989 115.088 24.4078 114.907 24.405 114.681C24.4023 114.456 24.3936 114.279 24.3788 114.151C24.4317 113.958 24.4703 113.764 24.4945 113.569C24.5275 113.372 24.5505 113.173 24.5635 112.972L24.6356 111.793C24.6505 111.563 24.6689 111.347 24.6907 111.143C24.7126 110.939 24.7421 110.729 24.7793 110.512C24.7988 110.299 24.8196 110.091 24.8414 109.888C24.8633 109.684 24.9151 109.487 24.9968 109.295C24.9755 108.999 24.99 108.732 25.0402 108.492L25.1907 107.774C25.24 107.46 25.3027 107.161 25.3788 106.877C25.4234 106.724 25.4648 106.576 25.5028 106.434C25.5474 106.281 25.5844 106.135 25.6136 105.995C25.6517 105.853 25.6898 105.711 25.7279 105.569C25.766 105.427 25.8085 105.284 25.8553 105.14C25.887 104.83 25.9571 104.505 26.0658 104.166C26.1615 103.848 26.2228 103.526 26.2498 103.198C26.2796 102.917 26.2964 102.658 26.3001 102.422C26.3104 102.174 26.3606 101.935 26.4507 101.704C26.4841 101.544 26.5099 101.391 26.528 101.245C26.555 101.097 26.5755 100.959 26.5894 100.833C26.601 100.698 26.6183 100.567 26.641 100.438C26.6726 100.307 26.7086 100.175 26.749 100.042C26.7435 99.9493 26.7446 99.8642 26.7526 99.7867C26.7605 99.7092 26.7705 99.6218 26.7826 99.5244C26.6443 99.6078 26.5306 99.7131 26.4415 99.8402C26.3547 99.9761 26.2257 100.095 26.0545 100.196C25.9366 100.322 25.8134 100.462 25.6848 100.619C25.5563 100.775 25.4553 100.929 25.382 101.08C25.3847 101.305 25.3666 101.452 25.3276 101.518C25.3016 101.563 25.2649 101.638 25.2176 101.745C25.1493 101.773 25.0582 101.82 24.944 101.888C24.8299 101.955 24.7387 102.003 24.6705 102.03C24.5531 102.014 24.4731 101.979 24.4305 101.924C24.3855 101.86 24.325 101.791 24.2489 101.717C24.1214 101.59 24.0669 101.473 24.0855 101.364C24.1041 101.256 24.1229 101.166 24.1419 101.095C24.1591 101.053 24.1872 100.998 24.2262 100.931C24.2652 100.865 24.2844 100.812 24.284 100.775C24.4617 100.483 24.6488 100.227 24.8451 100.005C25.0544 99.7618 25.2437 99.5142 25.4131 99.2623C25.4521 99.1955 25.4911 99.1287 25.5301 99.0619C25.5691 98.9951 25.6069 98.9239 25.6436 98.8483C25.6803 98.7727 25.7193 98.7059 25.7606 98.648C25.7996 98.5812 25.8397 98.5188 25.881 98.4608L26.4491 97.7178C26.715 97.4029 26.8942 97.1343 26.9865 96.9121C27.0854 96.6788 27.2056 96.4728 27.3472 96.2943C27.4887 96.1157 27.7565 95.9511 28.1504 95.8004C28.1833 95.7824 28.2119 95.7654 28.236 95.7497C28.2689 95.7316 28.2975 95.7147 28.3216 95.6989C28.3875 95.6627 28.4557 95.6354 28.5262 95.6168C28.6274 95.5714 28.6803 95.5575 28.6849 95.5751C28.6918 95.6016 28.7512 95.5765 28.8631 95.5C28.9224 95.475 28.9916 95.4333 29.0705 95.3748L29.2709 95.2232C29.3345 95.1782 29.4169 95.133 29.518 95.0876C29.628 95.0398 29.7015 94.9969 29.7386 94.9589C29.7892 94.9362 29.8465 94.9211 29.9105 94.9137C29.9481 94.9133 29.9813 94.914 30.01 94.9158C30.0476 94.9154 30.0852 94.9149 30.1228 94.9145C30.3784 95.0264 30.5003 95.2393 30.4886 95.5534C30.4834 95.8563 30.4448 96.1398 30.3728 96.4037C30.3478 96.5234 30.3094 96.6466 30.2579 96.7732C30.2064 96.8999 30.1435 97.0012 30.0692 97.0773L29.7858 97.7738C29.7408 97.8893 29.6925 98.0103 29.641 98.137C29.5959 98.2525 29.552 98.3724 29.5093 98.4967C29.4643 98.6122 29.4248 98.7309 29.3909 98.8529C29.357 98.9749 29.3243 99.1014 29.2927 99.2322C29.2611 99.363 29.2284 99.4894 29.1945 99.6114C29.1606 99.7334 29.1211 99.8521 29.076 99.9676C28.9906 100.216 28.914 100.463 28.8462 100.707C28.7784 100.951 28.7129 101.203 28.6497 101.465C28.5875 101.802 28.4997 102.131 28.3864 102.453C28.2773 102.755 28.1941 103.102 28.1369 103.494C28.1207 103.611 28.1088 103.728 28.1013 103.843C28.0939 103.958 28.0864 104.073 28.079 104.188C28.0715 104.303 28.0652 104.422 28.0601 104.546C28.0526 104.661 28.0419 104.782 28.028 104.908C28.0043 104.961 27.9885 105.027 27.9806 105.104C27.9727 105.182 27.9569 105.247 27.9332 105.301C27.916 105.343 27.9102 105.41 27.9157 105.503C27.9208 105.558 27.9016 105.61 27.8579 105.66C27.8403 105.843 27.817 106.024 27.7882 106.201C27.7571 106.369 27.7259 106.538 27.6948 106.706C27.6237 107.045 27.5893 107.398 27.5915 107.765C27.559 107.821 27.5453 107.876 27.5504 107.932C27.5555 107.987 27.5418 108.042 27.5093 108.098C27.5315 108.111 27.5535 108.195 27.5753 108.349C27.5971 108.504 27.5996 108.621 27.5828 108.7C27.5262 108.951 27.4818 109.123 27.4498 109.216C27.4284 109.278 27.4126 109.344 27.4024 109.412C27.3899 109.472 27.3785 109.536 27.3682 109.605C27.2758 110.006 27.2014 110.441 27.1452 110.908C27.0954 111.364 27.0257 111.816 26.936 112.263C26.8766 112.467 26.8315 112.672 26.8008 112.878C26.7701 113.084 26.7385 113.305 26.706 113.539C26.7361 113.654 26.7375 113.767 26.71 113.878C26.6868 113.969 26.6682 114.077 26.6543 114.203C26.6236 114.409 26.6145 114.572 26.627 114.691C26.6376 114.839 26.6174 114.995 26.5663 115.159L26.4598 115.399C26.4361 115.453 26.4094 115.53 26.3797 115.632C26.3648 115.684 26.3625 115.764 26.3726 115.875C26.3828 115.985 26.3805 116.066 26.3656 116.117C26.3581 116.232 26.3242 116.354 26.2639 116.483C26.2036 116.612 26.1409 116.732 26.0759 116.843C26.0044 116.966 25.9615 117.071 25.9471 117.16C25.9327 117.248 25.8897 117.354 25.8182 117.476C25.7175 117.559 25.6356 117.642 25.5725 117.725C25.5159 117.796 25.4317 117.87 25.3198 117.947C25.1143 118.133 24.9171 118.279 24.7282 118.385C24.5635 118.475 24.4614 118.535 24.422 118.564C24.3672 118.607 24.2958 118.64 24.2076 118.663C24.1018 118.691 24.0025 118.708 23.9098 118.713C23.817 118.719 23.7177 118.735 23.6119 118.763C23.476 118.855 23.3372 118.901 23.1957 118.901L22.7448 118.906L22.52 118.965C22.4583 118.982 22.3811 118.992 22.2883 118.998C22.0011 119.017 21.723 118.963 21.454 118.836C21.1872 118.717 20.9115 118.672 20.6266 118.7C20.1516 118.542 19.7195 118.278 19.3304 117.909C18.9413 117.54 18.5779 117.108 18.2404 116.613C18.0711 116.327 17.9666 116.001 17.9268 115.635C17.9069 115.452 17.8838 115.274 17.8574 115.102C17.8287 114.921 17.7956 114.741 17.758 114.562C17.7419 114.322 17.7127 114.103 17.6706 113.907C17.6353 113.737 17.6196 113.534 17.6234 113.297C17.6262 113.165 17.6346 113.035 17.6486 112.909C17.6625 112.783 17.6756 112.671 17.6877 112.574C17.7239 112.46 17.7777 112.343 17.8492 112.22C17.9207 112.098 17.9722 111.971 18.0038 111.84C18.0999 111.74 18.2328 111.672 18.4026 111.636C18.5835 111.608 18.7564 111.548 18.9211 111.458C18.9782 111.424 19.0352 111.39 19.0923 111.356C19.1471 111.314 19.2007 111.266 19.2531 111.215C19.3515 111.123 19.4649 111.089 19.5934 111.111ZM37.7464 105.633L37.7756 105.852C37.8094 105.909 37.8196 106.019 37.8061 106.183C37.7457 106.312 37.723 106.441 37.7378 106.569C37.721 106.648 37.7064 106.718 37.6939 106.778C37.6813 106.838 37.6778 106.914 37.6834 107.007C37.6759 107.122 37.6951 107.249 37.741 107.388C37.7684 107.456 37.7869 107.526 37.7966 107.599C37.8128 107.661 37.8246 107.724 37.832 107.788C37.8478 107.991 37.8711 108.187 37.9021 108.377C37.9332 108.567 37.9654 108.761 37.9987 108.96C38.0497 109.154 38.09 109.379 38.1196 109.635C38.1492 109.891 38.1719 110.12 38.1876 110.324C38.304 110.444 38.3828 110.565 38.4241 110.686C38.4676 110.816 38.5595 110.914 38.6995 110.981C39.0382 110.835 39.2983 110.677 39.4798 110.507C39.6612 110.337 39.8211 110.121 39.9594 109.858C40.0842 109.759 40.1782 109.669 40.2413 109.586C40.2956 109.506 40.3785 109.409 40.4899 109.294L40.6458 109.027C40.8273 108.857 40.9277 108.755 40.9472 108.722C40.9602 108.7 40.9776 108.676 40.9994 108.652C41.0301 108.625 41.0607 108.598 41.0913 108.571C41.3401 108.298 41.516 108.035 41.619 107.782C41.7234 107.641 41.8047 107.502 41.8627 107.365C41.9077 107.249 42.02 107.121 42.1996 106.979C42.2772 106.808 42.3737 106.655 42.4893 106.521C42.6048 106.387 42.7014 106.235 42.7789 106.064C42.8758 106.038 42.951 106.037 43.0043 106.061C43.0354 106.071 43.0665 106.082 43.0976 106.093C43.1375 106.101 43.1774 106.11 43.2173 106.118C43.3072 106.245 43.3543 106.388 43.3584 106.547C43.3625 106.706 43.3367 106.859 43.281 107.006C43.223 107.144 43.1974 107.226 43.2044 107.252C43.209 107.27 43.2049 107.29 43.1919 107.312C43.1552 107.388 43.1064 107.471 43.0456 107.563C42.9825 107.645 42.9338 107.729 42.8994 107.813C42.853 107.995 42.8033 108.093 42.7504 108.107C42.6975 108.121 42.6581 108.15 42.6321 108.194C42.4989 108.333 42.4073 108.432 42.3571 108.493C42.3028 108.573 42.22 108.67 42.1086 108.784C41.949 108.93 41.8529 109.03 41.8204 109.086C41.7879 109.142 41.7596 109.177 41.7355 109.193C41.5865 109.487 41.4315 109.74 41.2704 109.952C41.1224 110.141 40.9762 110.392 40.8318 110.703C40.7752 110.774 40.7186 110.846 40.6619 110.917C40.6053 110.989 40.5622 111.075 40.5324 111.178C40.4016 111.325 40.3015 111.464 40.2324 111.596C40.1632 111.727 40.0855 111.879 39.9991 112.053C39.9072 112.133 39.8123 112.239 39.7144 112.368C39.5947 112.522 39.4845 112.64 39.3838 112.723C39.3466 112.761 39.2821 112.821 39.1903 112.902C39.1137 112.969 39.0357 113.013 38.9564 113.034C38.7629 113.122 38.5643 113.156 38.3607 113.134C38.177 113.116 37.9956 113.107 37.8165 113.107C37.7182 113.02 37.6069 112.955 37.4826 112.912C37.2729 112.76 37.0981 112.561 36.958 112.315C36.818 112.069 36.6734 111.805 36.5241 111.524C36.3932 111.672 36.2911 111.821 36.2177 111.972C36.1467 112.132 36.0182 112.289 35.8321 112.441C35.6998 112.655 35.5631 112.87 35.422 113.086C35.2786 113.294 35.1252 113.499 34.9618 113.702C34.8073 113.903 34.6507 114.114 34.4919 114.334C34.3309 114.546 34.171 114.763 34.0123 114.983C33.9083 115.162 33.8252 115.24 33.7631 115.219C33.6554 115.454 33.3895 115.59 32.9655 115.626C32.8059 115.593 32.631 115.573 32.4408 115.566C32.3081 115.563 32.1532 115.547 31.976 115.519C31.6624 115.545 31.3764 115.478 31.118 115.32C30.8597 115.162 30.6229 114.96 30.4077 114.715C30.3154 114.579 30.241 114.457 30.1844 114.35C30.1594 114.29 30.1288 114.228 30.0926 114.162C30.0565 114.096 30.0191 114.026 29.9807 113.951C29.9325 113.803 29.8747 113.691 29.8075 113.615C29.7467 113.527 29.7224 113.435 29.7345 113.337C29.6877 113.302 29.6638 113.247 29.6629 113.172C29.6573 113.079 29.6488 113.011 29.6372 112.967C29.5547 112.725 29.5072 112.454 29.4948 112.156C29.4823 111.858 29.4989 111.58 29.5444 111.323C29.5742 111.221 29.6215 111.114 29.6865 111.003C29.7167 110.939 29.7292 110.879 29.7241 110.824C29.7214 110.777 29.7362 110.726 29.7687 110.67C29.7989 110.606 29.8379 110.539 29.8857 110.47C29.9553 110.376 30.0031 110.307 30.0291 110.263C30.0569 110.189 30.086 110.121 30.1161 110.056C30.1528 109.981 30.1962 109.913 30.2463 109.852C30.2964 109.792 30.341 109.728 30.38 109.662C30.419 109.595 30.458 109.528 30.497 109.461C30.5424 109.383 30.5747 109.309 30.5938 109.238C30.6193 109.156 30.6715 109.086 30.7504 109.027C30.7885 108.885 30.8412 108.763 30.9085 108.66C30.9758 108.558 31.0507 108.449 31.1333 108.333C31.3381 107.893 31.6272 107.487 32.0008 107.115C32.3832 106.741 32.7057 106.355 32.9684 105.956C33.0779 105.871 33.1675 105.781 33.2371 105.688C33.3067 105.594 33.3763 105.5 33.4459 105.407C33.6153 105.155 33.8371 105.03 34.1113 105.034L34.8475 105.038C35.0656 105.151 35.2792 105.264 35.4883 105.379C35.6975 105.493 35.8893 105.631 36.0637 105.793C36.1231 105.768 36.1881 105.746 36.2586 105.728C36.3268 105.7 36.4017 105.68 36.4834 105.668C36.6467 105.644 36.8107 105.587 36.9754 105.497C37.0283 105.483 37.0777 105.456 37.1237 105.415C37.1696 105.375 37.2102 105.35 37.2455 105.341C37.5331 105.36 37.7001 105.457 37.7464 105.633ZM34.3599 106.948C33.9441 107.302 33.5828 107.684 33.276 108.095C32.9692 108.505 32.6859 108.933 32.426 109.378C32.3935 109.434 32.3566 109.491 32.3153 109.549C32.2805 109.596 32.2468 109.647 32.2143 109.703C32.1795 109.749 32.1459 109.801 32.1134 109.856C32.0809 109.912 32.0528 109.966 32.0291 110.02C31.9818 110.127 31.9435 110.25 31.9142 110.389C31.8849 110.529 31.8577 110.659 31.8327 110.778C31.8243 110.818 31.8159 110.858 31.8076 110.898C31.7969 110.929 31.7851 110.956 31.7721 110.978C31.7591 111 31.7472 111.027 31.7365 111.058C31.7259 111.089 31.7152 111.12 31.7045 111.151C31.6924 111.249 31.7024 111.34 31.7343 111.426C31.7594 111.486 31.7893 111.581 31.824 111.714L31.8935 111.978C31.9074 112.031 31.9394 112.117 31.9895 112.235C32.0934 112.416 32.1708 112.603 32.2217 112.796C32.2588 112.937 32.3172 113.106 32.397 113.302C32.4767 113.498 32.5787 113.617 32.703 113.659C32.8362 113.7 32.951 113.689 33.0475 113.625C33.1593 113.549 33.2538 113.496 33.3308 113.466C33.8227 112.828 34.2736 112.177 34.6835 111.513C35.0933 110.85 35.4241 110.136 35.6757 109.372C35.5269 108.95 35.4055 108.506 35.3115 108.04C35.2244 107.601 35.0793 107.211 34.8762 106.868C34.7941 106.843 34.7069 106.852 34.6146 106.895C34.5464 106.922 34.4615 106.94 34.3599 106.948ZM48.9217 107.276C49.1983 107.109 49.4772 106.951 49.7583 106.802C50.0395 106.653 50.3341 106.519 50.6422 106.4C50.9197 106.308 51.1967 106.179 51.4732 106.012L51.8122 105.796C51.8692 105.762 51.9219 105.729 51.9702 105.697C52.0249 105.655 52.0764 105.618 52.1247 105.586C52.2388 105.518 52.3497 105.456 52.4574 105.4C52.565 105.343 52.6606 105.295 52.7441 105.254C52.913 105.322 52.9941 105.362 52.9876 105.373C52.9811 105.385 53.0002 105.403 53.0447 105.429L52.9304 105.855C52.8738 105.926 52.7993 105.984 52.707 106.027C52.6212 106.059 52.5356 106.11 52.4502 106.179C52.3759 106.255 52.3323 106.304 52.3193 106.327C52.2868 106.382 52.2585 106.418 52.2344 106.434C52.1597 106.472 52.1012 106.483 52.059 106.466C51.9969 106.444 51.9514 106.433 51.9226 106.431C51.5648 106.827 51.131 107.148 50.621 107.395C50.0847 107.649 49.5993 107.918 49.165 108.202C49.0119 108.336 48.8599 108.475 48.7091 108.618C48.5583 108.762 48.4021 108.921 48.2406 109.095C48.1737 109.414 48.0472 109.74 47.8611 110.071C47.6749 110.403 47.4751 110.7 47.2617 110.964C47.205 111.035 47.1582 111.09 47.121 111.128C47.0904 111.155 47.0642 111.181 47.0424 111.205C47.0294 111.228 47.0152 111.245 46.9999 111.259C46.9452 111.301 46.8848 111.341 46.819 111.377C46.7554 111.422 46.6907 111.463 46.6248 111.499C46.5589 111.535 46.493 111.571 46.4271 111.607C46.3612 111.643 46.2997 111.678 46.2427 111.712C46.1647 111.846 46.0904 111.922 46.0199 111.94C45.9099 111.988 45.7995 111.998 45.6887 111.971C45.5578 111.939 45.434 111.934 45.3171 111.956C45.1872 111.82 45.1054 111.724 45.0715 111.667C45.0423 111.627 44.9989 111.606 44.9414 111.602C44.851 111.437 44.7056 111.296 44.5052 111.179C44.316 111.069 44.1529 110.933 44.0161 110.771C43.9623 110.71 43.9118 110.643 43.8645 110.57C43.8172 110.498 43.7843 110.427 43.7657 110.356C43.7324 110.157 43.7677 109.969 43.8717 109.791C43.9757 109.613 44.0866 109.461 44.2044 109.336C44.3519 109.467 44.4607 109.504 44.5308 109.448C44.6008 109.392 44.6577 109.339 44.7013 109.29C44.7561 109.248 44.8252 109.206 44.9087 109.165L45.0702 109.08C45.3184 108.949 45.5866 108.822 45.8748 108.699C46.0641 108.63 46.2151 108.595 46.3278 108.594C46.467 108.586 46.6069 108.544 46.7475 108.47C46.7939 108.288 46.8647 108.109 46.9599 107.933C47.055 107.757 47.1481 107.592 47.2391 107.436C47.2716 107.201 47.326 106.942 47.4021 106.658C47.4783 106.374 47.5568 106.099 47.6376 105.833L47.7505 105.294C47.7765 105.249 47.7981 105.206 47.8152 105.164C47.8324 105.122 47.8494 105.061 47.8661 104.981C47.8643 104.831 47.8416 104.69 47.798 104.561C47.7544 104.431 47.703 104.289 47.6437 104.135C47.4507 104.082 47.2484 103.993 47.0369 103.87C46.9427 103.942 46.8414 103.969 46.7328 103.95C46.6243 103.931 46.5229 103.958 46.4287 104.03C46.3781 104.053 46.3322 104.093 46.2909 104.151C46.2691 104.175 46.2428 104.201 46.2122 104.228C46.1904 104.253 46.1642 104.278 46.1335 104.305C45.998 104.435 45.847 104.56 45.6804 104.679C45.5115 104.789 45.3939 104.933 45.3275 105.111C45.256 105.233 45.1922 105.349 45.136 105.458C45.0775 105.558 45.0267 105.652 44.9835 105.738C44.9404 105.825 44.8939 105.918 44.8443 106.015C44.8011 106.102 44.7547 106.194 44.705 106.292C44.6354 106.386 44.5767 106.467 44.5289 106.537C44.4876 106.595 44.4627 106.643 44.4544 106.683C44.4395 106.734 44.4126 106.793 44.3736 106.86C44.3346 106.927 44.2956 106.994 44.2566 107.06C44.2153 107.118 44.174 107.176 44.1327 107.234C44.0501 107.35 43.9786 107.473 43.9183 107.602C43.8839 107.686 43.8482 107.747 43.811 107.785C43.7739 107.823 43.7382 107.885 43.7038 107.969C43.6282 108.112 43.5704 108.268 43.5304 108.439C43.4946 108.59 43.448 108.753 43.3904 108.928L43.0839 109.913C43.0588 110.212 43.0248 110.513 42.982 110.816C42.9458 111.109 42.8995 111.399 42.8433 111.687C42.7871 111.975 42.7376 112.271 42.6948 112.574C42.6608 112.875 42.6325 113.18 42.6096 113.487C42.623 113.681 42.6232 113.79 42.6102 113.812C42.5972 113.834 42.5942 113.859 42.6012 113.885C42.6021 113.96 42.6062 114.03 42.6136 114.094C42.6122 114.16 42.6108 114.227 42.6094 114.293C42.6131 114.414 42.6024 114.535 42.5773 114.655C42.5791 114.805 42.5644 114.964 42.5333 115.133C42.5022 115.301 42.4699 115.465 42.4364 115.625C42.396 115.937 42.3608 116.234 42.3311 116.515C42.3017 116.833 42.2689 117.139 42.2327 117.431C42.2141 117.54 42.1999 117.647 42.1901 117.753C42.1804 117.86 42.1706 117.966 42.1608 118.072L42.1154 118.706C42.0968 118.815 42.0937 118.928 42.1062 119.048C42.1113 119.103 42.1164 119.158 42.1215 119.213C42.1266 119.269 42.1273 119.325 42.1235 119.382C42.1193 119.581 42.1065 119.802 42.0851 120.043C42.0571 120.295 42.0619 120.511 42.0995 120.689C41.9087 121.003 41.788 121.261 41.7374 121.463C41.5944 121.708 41.4369 121.933 41.2647 122.139C41.0925 122.344 40.8881 122.534 40.6514 122.71C40.4839 122.754 40.2633 122.793 39.9896 122.827C39.7094 122.872 39.5426 122.794 39.4894 122.591C39.43 122.437 39.3811 122.233 39.3427 121.979C39.3043 121.726 39.306 121.499 39.3478 121.299C39.3673 121.087 39.3936 120.882 39.4266 120.685C39.4596 120.488 39.4951 120.318 39.5332 120.176C39.5185 119.69 39.5488 119.268 39.6241 118.909C39.6427 118.8 39.6624 118.696 39.6833 118.596C39.7042 118.496 39.7251 118.397 39.746 118.297C39.7943 118.086 39.8262 117.885 39.8415 117.692C39.8532 117.557 39.8449 117.418 39.8166 117.275C39.7884 117.131 39.8088 116.994 39.878 116.863C39.9226 116.531 40.0027 116.208 40.1184 115.895C40.234 115.582 40.354 115.267 40.4784 114.952C40.536 114.777 40.5771 114.61 40.6017 114.453C40.6329 114.285 40.674 114.118 40.725 113.954C40.8119 113.639 40.87 113.322 40.8993 113.004C40.9263 112.676 41.0043 112.363 41.1334 112.066C41.152 111.957 41.1717 111.853 41.1926 111.753C41.2136 111.654 41.2345 111.554 41.2554 111.454L41.3843 110.869C41.3945 110.8 41.401 110.7 41.4039 110.567C41.4067 110.434 41.4132 110.333 41.4234 110.265C41.4555 110.172 41.4875 110.078 41.5195 109.985C41.5405 109.885 41.5614 109.786 41.5823 109.686C41.6483 109.292 41.7198 108.901 41.7969 108.513C41.8741 108.125 41.9744 107.736 42.0979 107.345C42.0581 107.158 42.0602 106.969 42.1044 106.778C42.1276 106.687 42.1452 106.593 42.1573 106.495C42.1694 106.398 42.1803 106.296 42.1901 106.19C42.2036 106.026 42.2039 105.866 42.191 105.709C42.1776 105.515 42.169 105.357 42.1654 105.235C42.1765 105.063 42.2058 104.923 42.2532 104.816C42.3177 104.667 42.3623 104.514 42.3869 104.357C42.3976 104.326 42.4083 104.295 42.419 104.264C42.4296 104.233 42.4392 104.197 42.4475 104.157C42.4559 104.117 42.4654 104.082 42.4761 104.051C42.4868 104.02 42.4974 103.989 42.5081 103.958C42.5332 103.838 42.5485 103.735 42.5541 103.649C42.5555 103.582 42.582 103.486 42.6336 103.359C42.7802 103.057 42.881 102.884 42.9357 102.842C42.9752 102.812 43.0134 102.779 43.0506 102.741C43.0854 102.694 43.1246 102.646 43.1682 102.597C43.5162 102.486 43.7586 102.512 43.8954 102.674C44.0322 102.836 44.1614 103.005 44.2828 103.18C44.2847 103.331 44.2865 103.481 44.2883 103.631C44.2901 103.781 44.2988 103.958 44.3146 104.161C44.3689 104.081 44.4232 104.001 44.4775 103.921C44.5383 103.829 44.6035 103.737 44.6731 103.643C44.81 103.447 44.9272 103.265 45.0247 103.098C45.1514 102.971 45.2725 102.84 45.388 102.706C45.5124 102.57 45.6324 102.434 45.7479 102.3C45.9767 102.023 46.2489 101.768 46.5644 101.534C46.6433 101.476 46.7266 101.416 46.8143 101.356C46.902 101.295 46.9899 101.253 47.0781 101.23C47.1574 101.209 47.2381 101.211 47.3203 101.237C47.4223 101.267 47.5142 101.275 47.5958 101.263C47.7183 101.335 47.8417 101.392 47.966 101.435C48.0792 101.471 48.2049 101.537 48.3431 101.632C48.4368 101.702 48.5175 101.794 48.5852 101.908C48.619 101.965 48.6529 102.022 48.6867 102.079C48.7206 102.136 48.7544 102.193 48.7883 102.25C48.8221 102.308 48.856 102.365 48.8898 102.422C48.9325 102.476 48.9795 102.53 49.031 102.583C49.1228 102.681 49.1926 102.785 49.2404 102.895C49.2543 102.948 49.2686 103.038 49.2834 103.166C49.2983 103.294 49.3126 103.385 49.3265 103.438C49.345 103.508 49.3634 103.56 49.3814 103.593C49.3995 103.626 49.4225 103.695 49.4503 103.801C49.4855 103.971 49.4729 104.21 49.4125 104.518L49.2689 105.262C49.2522 105.342 49.2354 105.422 49.2187 105.502C49.2085 105.57 49.1983 105.639 49.188 105.708L49.1072 106.153C49.07 106.37 49.037 106.567 49.0082 106.745C48.9794 106.922 48.9506 107.099 48.9217 107.276ZM59.3524 99.9545L59.3816 100.173C59.4154 100.23 59.4256 100.34 59.4121 100.504C59.3517 100.633 59.329 100.762 59.3438 100.89C59.327 100.97 59.3124 101.039 59.2999 101.099C59.2873 101.159 59.2838 101.235 59.2894 101.328C59.2819 101.443 59.3011 101.57 59.347 101.709C59.3744 101.777 59.3929 101.848 59.4026 101.92C59.4188 101.982 59.4306 102.045 59.438 102.109C59.4538 102.312 59.4771 102.509 59.5082 102.698C59.5392 102.888 59.5714 103.082 59.6047 103.281C59.6557 103.475 59.696 103.7 59.7256 103.956C59.7552 104.212 59.7779 104.442 59.7936 104.645C59.91 104.765 59.9888 104.886 60.0301 105.007C60.0736 105.137 60.1655 105.235 60.3055 105.302C60.6442 105.156 60.9043 104.998 61.0858 104.828C61.2672 104.658 61.4271 104.442 61.5654 104.179C61.6902 104.08 61.7842 103.99 61.8473 103.907C61.9016 103.827 61.9845 103.73 62.0959 103.616L62.2518 103.348C62.4333 103.178 62.5337 103.076 62.5532 103.043C62.5662 103.021 62.5836 102.997 62.6054 102.973C62.6361 102.946 62.6667 102.919 62.6973 102.892C62.9461 102.619 63.122 102.356 63.225 102.103C63.3295 101.963 63.4107 101.823 63.4687 101.686C63.5137 101.57 63.6261 101.442 63.8056 101.3C63.8832 101.129 63.9797 100.977 64.0953 100.842C64.2108 100.708 64.3074 100.556 64.3849 100.385C64.4818 100.359 64.557 100.358 64.6103 100.382C64.6414 100.393 64.6725 100.403 64.7036 100.414C64.7435 100.422 64.7834 100.431 64.8233 100.439C64.9132 100.566 64.9603 100.709 64.9644 100.868C64.9685 101.028 64.9427 101.18 64.887 101.327C64.829 101.465 64.8035 101.547 64.8104 101.573C64.815 101.591 64.8109 101.611 64.7979 101.633C64.7612 101.709 64.7124 101.792 64.6516 101.884C64.5885 101.966 64.5398 102.05 64.5054 102.134C64.459 102.316 64.4093 102.414 64.3564 102.428C64.3035 102.442 64.2641 102.471 64.2381 102.515C64.1049 102.654 64.0133 102.754 63.9631 102.814C63.9088 102.894 63.826 102.991 63.7146 103.105C63.555 103.251 63.4589 103.352 63.4264 103.407C63.3939 103.463 63.3656 103.499 63.3415 103.514C63.1925 103.808 63.0375 104.061 62.8764 104.273C62.7284 104.462 62.5822 104.713 62.4378 105.024C62.3812 105.096 62.3246 105.167 62.2679 105.238C62.2113 105.31 62.1682 105.397 62.1384 105.499C62.0076 105.646 61.9075 105.786 61.8384 105.917C61.7692 106.048 61.6915 106.2 61.6051 106.374C61.5132 106.455 61.4183 106.56 61.3204 106.689C61.2007 106.843 61.0905 106.962 60.9898 107.045C60.9526 107.083 60.8881 107.142 60.7963 107.223C60.7197 107.29 60.6417 107.334 60.5624 107.355C60.3689 107.443 60.1704 107.477 59.9667 107.455C59.783 107.437 59.6016 107.428 59.4225 107.428C59.3242 107.341 59.2129 107.276 59.0886 107.233C58.8789 107.081 58.7041 106.882 58.564 106.636C58.424 106.39 58.2794 106.127 58.1301 105.845C57.9992 105.993 57.8971 106.142 57.8237 106.293C57.7527 106.454 57.6242 106.61 57.4381 106.762C57.3058 106.976 57.1691 107.191 57.028 107.407C56.8846 107.615 56.7312 107.82 56.5678 108.023C56.4133 108.224 56.2567 108.435 56.0979 108.655C55.9369 108.867 55.777 109.084 55.6183 109.305C55.5143 109.483 55.4312 109.561 55.3691 109.54C55.2614 109.775 54.9955 109.911 54.5715 109.947C54.4119 109.914 54.237 109.894 54.0468 109.887C53.9141 109.884 53.7592 109.869 53.582 109.84C53.2684 109.866 52.9824 109.8 52.724 109.641C52.4657 109.483 52.2289 109.281 52.0137 109.036C51.9214 108.9 51.847 108.779 51.7904 108.671C51.7654 108.612 51.7348 108.549 51.6986 108.483C51.6625 108.417 51.6251 108.347 51.5867 108.272C51.5385 108.125 51.4807 108.012 51.4135 107.936C51.3527 107.848 51.3284 107.756 51.3405 107.658C51.2937 107.623 51.2698 107.568 51.2689 107.493C51.2633 107.401 51.2548 107.332 51.2432 107.288C51.1607 107.046 51.1132 106.776 51.1008 106.477C51.0883 106.179 51.1049 105.901 51.1504 105.644C51.1802 105.542 51.2275 105.436 51.2925 105.324C51.3227 105.26 51.3352 105.2 51.3301 105.145C51.3274 105.098 51.3422 105.047 51.3747 104.992C51.4049 104.927 51.4439 104.86 51.4917 104.791C51.5613 104.698 51.6091 104.628 51.6351 104.584C51.6629 104.511 51.692 104.442 51.7221 104.377C51.7588 104.302 51.8022 104.234 51.8523 104.173C51.9025 104.113 51.947 104.05 51.986 103.983C52.025 103.916 52.064 103.849 52.103 103.782C52.1485 103.705 52.1807 103.63 52.1998 103.559C52.2253 103.477 52.2775 103.407 52.3564 103.348C52.3945 103.206 52.4472 103.084 52.5145 102.982C52.5818 102.879 52.6567 102.77 52.7393 102.654C52.9441 102.214 53.2332 101.808 53.6068 101.436C53.9892 101.063 54.3117 100.676 54.5744 100.277C54.6839 100.192 54.7735 100.102 54.8431 100.009C54.9127 99.9151 54.9823 99.8214 55.0519 99.7277C55.2213 99.4759 55.4431 99.3516 55.7173 99.3549L56.4535 99.3593C56.6716 99.4717 56.8852 99.5852 57.0943 99.6998C57.3035 99.8145 57.4953 99.9525 57.6697 100.114C57.7291 100.089 57.7941 100.067 57.8646 100.049C57.9328 100.021 58.0077 100.002 58.0894 99.9896C58.2527 99.9655 58.4167 99.9083 58.5814 99.8179C58.6343 99.804 58.6837 99.7768 58.7297 99.7365C58.7756 99.6961 58.8162 99.6713 58.8515 99.6621C59.1391 99.6807 59.3061 99.7782 59.3524 99.9545ZM55.9659 101.269C55.5501 101.623 55.1888 102.005 54.882 102.416C54.5753 102.826 54.2919 103.254 54.032 103.7C53.9995 103.755 53.9626 103.812 53.9213 103.87C53.8865 103.917 53.8528 103.968 53.8203 104.024C53.7855 104.071 53.7519 104.122 53.7194 104.177C53.6869 104.233 53.6588 104.288 53.6351 104.341C53.5878 104.448 53.5495 104.571 53.5202 104.71C53.4909 104.85 53.4637 104.98 53.4387 105.099C53.4303 105.139 53.4219 105.179 53.4136 105.219C53.4029 105.25 53.3911 105.277 53.3781 105.299C53.3651 105.321 53.3532 105.348 53.3425 105.379C53.3319 105.41 53.3212 105.441 53.3105 105.472C53.2984 105.57 53.3084 105.661 53.3403 105.747C53.3654 105.807 53.3953 105.902 53.43 106.035L53.4995 106.299C53.5134 106.352 53.5454 106.438 53.5955 106.557C53.6994 106.737 53.7768 106.924 53.8277 107.118C53.8648 107.259 53.9232 107.427 54.003 107.623C54.0827 107.819 54.1847 107.938 54.309 107.981C54.4422 108.021 54.557 108.01 54.6535 107.947C54.7653 107.87 54.8598 107.817 54.9368 107.787C55.4287 107.149 55.8796 106.498 56.2895 105.834C56.6993 105.171 57.0301 104.457 57.2817 103.694C57.1329 103.271 57.0115 102.827 56.9175 102.362C56.8304 101.923 56.6853 101.532 56.4822 101.19C56.4001 101.164 56.3129 101.173 56.2206 101.216C56.1524 101.243 56.0675 101.261 55.9659 101.269ZM65.428 102.74C65.5459 102.615 65.6303 102.47 65.6814 102.306C65.707 102.224 65.7369 102.14 65.7713 102.056C65.8056 101.971 65.8444 101.886 65.8876 101.799C66.0472 101.474 66.2361 101.189 66.4543 100.943C66.529 100.726 66.6474 100.549 66.8093 100.412C66.969 100.266 67.0762 100.083 67.131 99.8608C67.1482 99.8186 67.1651 99.7576 67.1818 99.6778C67.1986 99.598 67.2155 99.537 67.2327 99.4948C67.4449 98.9395 67.7043 98.4567 68.0111 98.0462C68.0524 97.9882 68.0937 97.9303 68.135 97.8723C68.1763 97.8143 68.2132 97.7575 68.2457 97.7018C68.2977 97.6128 68.3936 97.4933 68.5332 97.3435C68.601 97.2786 68.6676 97.2093 68.733 97.1355C68.7961 97.053 68.8537 96.9671 68.9057 96.8781C69.0096 96.7 69.1449 96.5513 69.3115 96.4322C69.4122 96.3491 69.5164 96.2794 69.624 96.2228C69.6723 96.1913 69.7217 96.1641 69.7723 96.1414C69.8293 96.1076 69.8864 96.0737 69.9435 96.0399C70.0576 95.9722 70.1597 95.9124 70.2497 95.8604C70.3397 95.8085 70.4511 95.7839 70.5838 95.7868C70.896 95.8272 71.1701 96.0096 71.4061 96.334C71.4938 96.4523 71.5359 96.7381 71.5325 97.1913C71.538 97.6423 71.526 98.1166 71.4966 98.6144C71.4649 99.1034 71.4507 99.4794 71.4538 99.7424C71.4533 99.8839 71.4642 99.9611 71.4865 99.9741C71.5087 99.9871 71.5233 100.007 71.5303 100.033C71.5182 100.131 71.5126 100.217 71.5135 100.292C71.5144 100.367 71.5176 100.451 71.5232 100.544C71.525 100.694 71.5483 100.891 71.5933 101.134C71.6382 101.376 71.6968 101.563 71.7692 101.695C71.9432 101.64 72.0399 101.596 72.0594 101.562C72.0724 101.54 72.0921 101.525 72.1186 101.518C72.1844 101.482 72.2406 101.463 72.287 101.46C72.3334 101.457 72.3895 101.438 72.4554 101.402C72.7913 101.21 73.0665 100.93 73.281 100.563C73.4211 100.45 73.5524 100.341 73.6749 100.233C73.8062 100.123 73.9288 100.015 74.0424 99.9102C74.2429 99.669 74.4077 99.4891 74.5367 99.3703C74.6657 99.2516 74.8615 99.0823 75.1242 98.8625C75.204 98.7002 75.3293 98.5494 75.5001 98.4103C75.6555 98.2846 75.7985 98.1293 75.9289 97.9442C75.9679 97.8774 75.9992 97.8173 76.0229 97.764C76.0572 97.6796 76.1066 97.6525 76.1711 97.6826C76.2824 97.7476 76.3641 97.8251 76.416 97.9151C76.4679 98.0051 76.4897 98.0701 76.4814 98.11C76.3839 98.277 76.3368 98.4024 76.34 98.4864C76.3432 98.5704 76.3351 98.6291 76.3156 98.6625C76.2506 98.7738 76.1392 98.8879 75.9814 99.0047C75.8478 99.1058 75.7703 99.1875 75.7489 99.2496C75.7276 99.3118 75.7072 99.3596 75.6877 99.393C75.6487 99.4597 75.6106 99.5122 75.5735 99.5502C75.5364 99.5882 75.4983 99.6406 75.4593 99.7074C75.438 99.7696 75.3976 99.8132 75.3382 99.8382L75.1767 99.9231C75.0941 100.039 75.0268 100.142 74.9748 100.231C74.9228 100.32 74.8644 100.42 74.7994 100.531C74.7019 100.698 74.6404 100.823 74.6149 100.905C74.5958 100.976 74.5209 101.085 74.39 101.232L73.9445 101.689C73.7301 101.877 73.5227 102.092 73.3222 102.333C73.1217 102.574 72.9212 102.815 72.7207 103.057C72.5875 103.195 72.4312 103.335 72.2516 103.477C72.0873 103.605 71.9397 103.742 71.8089 103.89C71.7295 103.911 71.6799 103.919 71.6599 103.915C71.6289 103.904 71.5839 103.93 71.5249 103.993C71.4252 103.972 71.3359 103.991 71.257 104.049C71.1716 104.119 71.0846 104.146 70.996 104.132C70.8893 104.085 70.7993 104.047 70.726 104.019C70.6616 103.989 70.6094 103.97 70.5695 103.961C70.5073 103.94 70.4473 103.909 70.3893 103.867C70.3308 103.788 70.2921 103.695 70.2732 103.587C70.2542 103.479 70.209 103.396 70.1375 103.34C70.0356 102.952 69.9515 102.578 69.8853 102.219C69.819 101.859 69.779 101.474 69.7652 101.063C69.7504 100.935 69.7389 100.711 69.7306 100.393C69.7201 100.066 69.6997 99.7558 69.6697 99.4621C69.6396 99.1685 69.5835 99.0088 69.5014 98.9833C69.3353 99.1401 69.1786 99.3509 69.0315 99.6157C68.9623 99.747 68.8909 99.8694 68.8171 99.9831C68.7433 100.097 68.6716 100.2 68.6019 100.294L68.2685 100.693C68.2184 100.753 68.165 100.819 68.1084 100.89C68.0494 100.953 67.9917 101.02 67.935 101.091C67.8348 101.212 67.7522 101.328 67.6872 101.439C67.6222 101.551 67.5531 101.682 67.4797 101.833C67.4342 101.911 67.3887 101.989 67.3433 102.067C67.3043 102.134 67.2664 102.205 67.2298 102.28C67.1541 102.423 67.0597 102.565 66.9464 102.708C66.8814 102.82 66.8304 102.894 66.7933 102.932C66.7561 102.97 66.7116 103.034 66.6596 103.123L66.4744 103.44C66.4159 103.54 66.3319 103.633 66.2224 103.718C66.0399 104.172 65.8187 104.621 65.5588 105.066C65.3077 105.509 65.1283 105.938 65.0205 106.353C64.8553 106.585 64.671 106.798 64.4678 106.993C64.2645 107.188 63.9815 107.276 63.6187 107.258C63.4146 107.199 63.2769 107.141 63.2054 107.084C63.1363 107.036 63.0607 107 62.9786 106.974C62.9453 106.776 62.9142 106.586 62.8855 106.405C62.8568 106.224 62.8611 106.025 62.8982 105.808L62.9874 105.502C63.0362 105.329 63.0471 105.137 63.0203 104.928C62.9911 104.709 62.9998 104.509 63.0462 104.327C63.1057 104.123 63.1335 103.96 63.1299 103.839C63.1285 103.726 63.1415 103.614 63.1689 103.503C63.1852 103.386 63.2117 103.289 63.2484 103.214C63.285 103.138 63.3115 103.042 63.3278 102.924C63.3464 102.816 63.3814 102.698 63.433 102.572C63.4845 102.445 63.5195 102.327 63.5381 102.219C63.5443 101.812 63.5834 101.387 63.6554 100.944C63.6583 100.811 63.6622 100.683 63.6674 100.559C63.6725 100.435 63.6876 100.313 63.7127 100.194C63.7313 100.085 63.7499 99.9767 63.7685 99.8681C63.7871 99.7596 63.8068 99.6554 63.8277 99.5557C63.8463 99.4472 63.8661 99.343 63.887 99.2433C63.9056 99.1347 63.9242 99.0262 63.9427 98.9176C63.9678 98.7979 63.992 98.6926 64.0152 98.6017C64.0384 98.5108 64.0737 98.412 64.1211 98.3053C64.1359 98.2543 64.1508 98.2032 64.1657 98.1522C64.1805 98.1012 64.191 98.0513 64.197 98.0026C64.2031 97.9539 64.2135 97.904 64.2284 97.853C64.2432 97.802 64.2581 97.751 64.273 97.6999C64.2878 97.6489 64.3027 97.5979 64.3175 97.5468C64.3301 97.487 64.3371 97.4239 64.3385 97.3576C64.3436 97.2337 64.3808 97.1061 64.4499 96.9749C64.4931 96.8881 64.5286 96.8081 64.5565 96.7348C64.5908 96.6504 64.6175 96.5727 64.6366 96.5017C64.6682 96.3709 64.7619 96.2615 64.9178 96.1734C65.0862 96.2045 65.2335 96.1375 65.3597 95.9724C65.4925 95.7961 65.6314 95.769 65.7766 95.8911C66.0651 95.9849 66.2651 96.0643 66.3764 96.1293C66.5076 96.1984 66.6037 96.2769 66.6644 96.3646C66.7943 96.5001 66.8459 96.6608 66.8194 96.8468C66.7929 97.0329 66.7078 97.2108 66.5639 97.3805C66.574 97.67 66.5247 97.9845 66.4161 98.3241C66.3627 98.4795 66.3137 98.6337 66.2691 98.7868C66.2222 98.9311 66.1797 99.0742 66.1416 99.2161L66.0691 99.8006C66.0282 100.075 65.9829 100.351 65.9331 100.628C65.8834 100.905 65.8182 101.177 65.7374 101.443C65.6853 101.711 65.6377 101.888 65.5945 101.975C65.5602 102.06 65.5302 102.143 65.5047 102.225C65.4857 102.296 65.4601 102.468 65.428 102.74ZM74.3994 97.6111C74.4978 97.5193 74.6041 97.35 74.7183 97.1032C74.8302 96.8476 74.94 96.602 75.0477 96.3664C75.1531 96.1219 75.2419 95.976 75.3143 95.9288C75.344 95.8267 75.3728 95.739 75.4007 95.6657C75.4285 95.5924 75.4796 95.5178 75.5539 95.4417C75.6277 95.149 75.7561 94.8844 75.9389 94.6478C76.1283 94.4001 76.2965 94.1439 76.4437 93.879C76.5926 93.7645 76.7392 93.6411 76.8836 93.509C77.0367 93.3745 77.1819 93.2279 77.3193 93.0693C77.6029 92.7497 77.9551 92.5299 78.3759 92.4099C78.593 92.4471 78.7894 92.4237 78.9653 92.3398C79.1323 92.2582 79.3158 92.2571 79.5157 92.3365C79.6567 92.4785 79.7627 92.559 79.8337 92.5781C79.9047 92.5971 79.9703 92.6317 80.0306 92.6818C80.159 92.8836 80.2501 93.0152 80.3039 93.0764C80.3666 93.1354 80.4127 93.2034 80.4424 93.2804C80.4859 93.4103 80.5249 93.5226 80.5592 93.6172C80.5912 93.7031 80.6197 93.7757 80.6447 93.8351C80.6836 93.9473 80.7126 94.0575 80.7316 94.1656C80.7969 94.6291 80.8269 95.1018 80.8216 95.5839C80.8179 95.6414 80.8142 95.6989 80.8104 95.7564C80.8067 95.814 80.8041 95.8759 80.8027 95.9422C80.7976 96.0661 80.7802 96.1791 80.7504 96.2811C80.6622 96.4834 80.6056 96.6443 80.5805 96.764C80.5382 96.9259 80.5053 97.0335 80.4816 97.0869C80.4036 97.2204 80.3277 97.3441 80.2539 97.4577C80.1889 97.569 80.126 97.6704 80.0652 97.7617C79.9975 97.8267 79.9309 97.896 79.8655 97.9697C79.7977 98.0347 79.7311 98.104 79.6657 98.1778C79.5413 98.3141 79.3835 98.431 79.1924 98.5283L78.9926 98.7363C78.9272 98.8101 78.8471 98.8641 78.7525 98.8984C78.6239 99.0547 78.4719 99.1936 78.2965 99.3151C78.2177 99.3735 78.1344 99.4331 78.0467 99.4939C77.9678 99.5523 77.8856 99.6163 77.8003 99.6859C77.6819 99.7735 77.5836 99.8653 77.5051 99.9613C77.4267 100.057 77.3218 100.16 77.1905 100.27C77.1181 100.318 76.9984 100.382 76.8314 100.464C76.6708 100.534 76.5599 100.596 76.4987 100.65C76.6332 100.803 76.7264 101.014 76.7782 101.283C76.8343 101.532 76.9363 101.741 77.0842 101.91C77.3273 101.902 77.589 101.876 77.8692 101.831C78.1494 101.785 78.4083 101.712 78.6459 101.612C78.6876 101.592 78.7282 101.567 78.7677 101.538C78.8159 101.506 78.8642 101.475 78.9125 101.443C78.9607 101.412 79.009 101.38 79.0572 101.349C79.1055 101.317 79.1549 101.29 79.2055 101.267C79.3901 101.181 79.5681 101.087 79.7393 100.986C79.9105 100.884 80.0551 100.771 80.1729 100.645C80.6379 100.335 81.069 99.9671 81.4662 99.5422C81.8635 99.1174 82.192 98.6823 82.452 98.237C82.6265 98.0404 82.8091 97.7851 82.9999 97.471C83.1906 97.157 83.3287 96.8757 83.4142 96.6271C83.6045 96.2755 83.7801 95.9937 83.9412 95.7817C84.1022 95.5698 84.2732 95.4494 84.4542 95.4207C84.5952 95.3837 84.7539 95.4315 84.9301 95.5642C85.1064 95.697 85.1406 95.8811 85.0329 96.1168C84.8932 96.2666 84.7498 96.4739 84.6027 96.7388C84.4644 97.0013 84.301 97.2045 84.1126 97.3482C83.9882 97.4846 83.8409 97.7306 83.6705 98.0864C83.5043 98.4222 83.3616 98.6859 83.2423 98.8775C83.2163 98.922 83.1871 98.9721 83.1546 99.0278C83.1221 99.0834 83.0808 99.1414 83.0306 99.2017C82.9392 99.32 82.871 99.4369 82.826 99.5524C82.6129 99.8534 82.3994 100.117 82.1855 100.343C82.0793 100.333 82.0046 100.371 81.9614 100.458C81.9075 100.576 81.8556 100.665 81.8054 100.725C81.7836 100.75 81.7618 100.774 81.74 100.799C81.7182 100.824 81.692 100.849 81.6613 100.876C81.6307 100.903 81.6045 100.929 81.5827 100.954C81.5609 100.978 81.5391 101.003 81.5173 101.027C81.4087 101.188 81.2868 101.352 81.1518 101.519C81.0167 101.687 80.8726 101.838 80.7195 101.972C80.571 102.124 80.4202 102.267 80.267 102.402C80.1162 102.545 79.9619 102.675 79.8042 102.792C79.6464 102.909 79.4921 103.039 79.3413 103.182C79.1993 103.323 79.0596 103.473 78.9222 103.632L78.6418 103.748C78.6 103.768 78.5571 103.784 78.513 103.796C78.4712 103.816 78.4295 103.837 78.3877 103.857C78.3 103.918 78.2121 103.96 78.124 103.983C78.0358 104.006 77.921 104.018 77.7795 104.017C77.156 104.011 76.6058 103.854 76.129 103.546C76.0622 103.507 75.9922 103.474 75.9189 103.446C75.8521 103.407 75.782 103.373 75.7087 103.346C75.5399 103.277 75.4174 103.205 75.3414 103.131C75.2273 103.02 75.0935 102.833 74.94 102.572C74.7777 102.313 74.6275 102.046 74.4893 101.772C74.3489 101.488 74.2578 101.267 74.2161 101.109C74.2411 100.989 74.2509 100.793 74.2455 100.521C74.2377 100.241 74.2222 99.9666 74.1991 99.6994C74.1737 99.4234 74.147 99.2324 74.1192 99.1267C74.1452 99.0821 74.1856 98.949 74.2404 98.7273C74.2841 98.499 74.3234 98.2719 74.3582 98.046C74.3996 97.809 74.4133 97.664 74.3994 97.6111ZM78.2123 94.7995C78.1306 94.9906 78.0466 95.1729 77.9602 95.3464C77.8739 95.5199 77.7676 95.6892 77.6414 95.8543C77.5866 96.076 77.5095 96.2848 77.4101 96.4805C77.3108 96.6763 77.2092 96.8632 77.1052 97.0413C77.0717 97.2009 77.0214 97.3319 76.9541 97.4344C76.8868 97.5369 76.8118 97.6462 76.7292 97.7621C76.6656 97.9862 76.5732 98.2084 76.452 98.4287C76.3309 98.649 76.3489 98.861 76.5061 99.0647C76.7093 99.049 76.8963 98.9716 77.0671 98.8325C77.2378 98.6934 77.3845 98.57 77.507 98.4624C77.5659 98.3998 77.626 98.3416 77.6873 98.2878C77.7573 98.2317 77.823 98.1767 77.8842 98.1229C77.9455 98.0691 78.0068 98.0153 78.068 97.9616C78.1293 97.9078 78.1849 97.8507 78.2351 97.7904L78.7419 96.9221C78.8222 96.7973 78.8979 96.6549 78.9689 96.4949C78.9968 96.4216 79.0246 96.3483 79.0525 96.275C79.0868 96.1906 79.1212 96.1062 79.1556 96.0218C79.1487 95.8162 79.1717 95.617 79.2246 95.424C79.2841 95.2199 79.2806 95.0276 79.2144 94.8471C79.1847 94.7701 79.1295 94.6857 79.0488 94.5938C78.9681 94.5019 78.9153 94.4263 78.8902 94.3669C78.7051 94.4155 78.5766 94.4823 78.5046 94.5672C78.4698 94.614 78.4251 94.6588 78.3703 94.7014C78.322 94.733 78.2694 94.7657 78.2123 94.7995ZM86.0655 96.4956L86.2589 96.5862C86.3215 96.6451 86.3338 96.7456 86.2957 96.8875C86.2767 96.9585 86.2609 97.0239 86.2483 97.0837C86.2446 97.1412 86.2397 97.1944 86.2337 97.2431C86.2518 97.276 86.2698 97.309 86.2879 97.3419C86.3037 97.366 86.3183 97.3858 86.3317 97.4011C86.3633 97.4493 86.3695 97.5089 86.3505 97.5799C86.4994 97.6444 86.6054 97.725 86.6684 97.8215C86.7496 97.9509 86.8426 98.0537 86.9474 98.1298C87.0833 98.2166 87.199 98.2805 87.2946 98.3213C87.4078 98.3575 87.5212 98.4125 87.6348 98.4863C87.7179 98.408 87.7814 98.363 87.8255 98.3514C87.8872 98.3352 87.9531 98.299 88.0232 98.2429C88.1221 98.0096 88.1806 97.7303 88.1988 97.4051C88.1979 97.33 88.1947 97.246 88.1891 97.1532C88.1836 97.0604 88.1716 96.9788 88.153 96.9082C88.084 96.6814 87.9509 96.4619 87.7538 96.2498C87.5544 96.0289 87.3948 95.8164 87.2752 95.6122C87.1653 95.4809 87.1016 95.328 87.084 95.1536C87.0618 94.9615 87.0157 94.804 86.9456 94.6811C86.9137 94.5952 86.8687 94.5317 86.8107 94.4903C86.7861 94.4685 86.7615 94.4467 86.737 94.4249C86.7101 94.3943 86.6832 94.3637 86.6563 94.333C86.5816 94.1924 86.5267 94.0372 86.4915 93.8674C86.4628 93.6865 86.3837 93.5471 86.2543 93.4491C86.1763 93.5827 86.0621 93.8295 85.9117 94.1895C85.759 94.5406 85.6062 94.8917 85.4535 95.2429C85.3096 95.5917 85.2019 95.8273 85.1304 95.9498C85.1025 96.0231 85.0703 96.0975 85.0336 96.1731C85.0034 96.2376 84.9677 96.2988 84.9264 96.3568C84.8851 96.4148 84.8461 96.4816 84.8094 96.5572C84.7792 96.6217 84.7502 96.6906 84.7224 96.7639C84.533 97.1906 84.3897 97.5063 84.2927 97.7108C84.2045 97.9131 84.1175 98.1197 84.0316 98.3308C83.9457 98.5418 83.8083 98.8795 83.6193 99.3438C83.5594 99.5104 83.4566 99.7824 83.3108 100.16C83.1562 100.54 83.0125 100.908 82.8797 101.263C82.7358 101.612 82.6545 101.84 82.636 101.949C82.5765 102.153 82.4804 102.343 82.3477 102.519C82.215 102.696 82.034 102.814 81.8048 102.874C81.8025 102.865 81.7663 102.799 81.6963 102.677C81.6286 102.562 81.563 102.438 81.4995 102.304C81.4295 102.181 81.3889 102.116 81.3778 102.11C81.4028 101.99 81.4147 101.874 81.4133 101.761C81.4143 101.657 81.4638 101.541 81.5617 101.411C81.5668 101.288 81.6184 101.071 81.7164 100.763C81.812 100.446 81.9295 100.104 82.0688 99.7372C82.2058 99.362 82.3364 99.0166 82.4609 98.7012C82.5765 98.3881 82.6524 98.1749 82.6886 98.0618C82.7731 97.917 82.8885 97.6747 83.0347 97.3347C83.1721 96.997 83.3095 96.6593 83.447 96.3216C83.5909 95.9728 83.6951 95.7239 83.7596 95.575C83.7764 95.3161 83.8619 94.978 84.016 94.5605C84.1767 94.1319 84.3494 93.6954 84.5341 93.251C84.7254 92.7955 84.8777 92.4068 84.991 92.0848C85.0421 91.9206 85.0846 91.7775 85.1185 91.6555C85.1524 91.5335 85.1884 91.4015 85.2265 91.2596C85.2784 91.1705 85.3193 91.075 85.349 90.9729C85.3495 90.8314 85.3052 90.7347 85.2162 90.6827C85.1359 90.6284 85.0852 90.5428 85.0639 90.4259C85.1438 90.0845 85.2482 89.8544 85.3772 89.7357C85.5127 89.6058 85.6288 89.4198 85.7253 89.1777C85.8126 89.0793 85.8824 89.0044 85.9349 88.953C86.0114 88.8857 86.0789 88.802 86.1374 88.7018C86.2284 88.546 86.401 88.4676 86.6552 88.4668C86.916 88.4548 87.0811 88.4915 87.1507 88.5769C87.1734 88.6274 87.1919 88.698 87.2063 88.7884C87.209 88.8348 87.2118 88.8812 87.2146 88.9276C87.2174 88.974 87.2201 89.0204 87.2229 89.0668C87.2261 89.1508 87.2282 89.2303 87.2291 89.3055C87.23 89.3806 87.2309 89.4558 87.2318 89.5309C87.2304 89.5973 87.2313 89.6724 87.2345 89.7564C87.2354 89.8316 87.2375 89.9111 87.2407 89.9951C87.2564 90.1983 87.2742 90.3915 87.2941 90.5748C87.314 90.758 87.4153 90.9105 87.5981 91.0321C87.6036 91.1248 87.6358 91.2295 87.6947 91.3459C87.7536 91.4624 87.8146 91.5689 87.8776 91.6654C88.0612 92.2203 88.3097 92.7534 88.6231 93.2648C88.9366 93.7761 89.2505 94.2355 89.5649 94.6429C89.5881 94.731 89.6245 94.8157 89.6741 94.8969C89.7237 94.9781 89.7778 95.0581 89.8362 95.137C90.0374 95.6873 90.1316 96.261 90.1189 96.858C90.1114 97.1522 90.1039 97.4463 90.0964 97.7404C90.0977 98.0322 90.0978 98.3196 90.0968 98.6026C90.0374 98.8067 90.0025 99.0326 89.9922 99.2804C89.9838 99.4993 89.9397 99.69 89.8598 99.8523C89.8087 100.017 89.7711 100.196 89.7469 100.391C89.7227 100.586 89.6188 100.764 89.435 100.925C89.3297 100.991 89.2107 101.022 89.078 101.019C88.9541 101.014 88.8439 101.043 88.7474 101.106C88.6704 101.136 88.5969 101.179 88.5268 101.235C88.472 101.277 88.405 101.309 88.3257 101.33C88.108 101.434 87.9127 101.462 87.7397 101.413C87.5889 101.377 87.3932 101.368 87.1524 101.384C87.1385 101.331 87.1016 101.298 87.0418 101.286C86.9819 101.273 86.9297 101.254 86.8852 101.228C86.754 100.98 86.6302 100.795 86.5138 100.675C86.4196 100.568 86.332 100.45 86.2508 100.32C86.1447 100.131 86.0684 99.9488 86.0221 99.7725C85.9711 99.5786 85.8772 99.4007 85.7404 99.2387C85.6282 99.0986 85.5718 99.0097 85.5714 98.9721C85.5709 98.9346 85.5614 98.8805 85.5429 98.81C85.4827 98.5808 85.4034 98.333 85.3051 98.0667C85.2045 97.7916 85.2556 97.5378 85.4584 97.3055C85.5369 97.2095 85.5787 97.0995 85.5838 96.9757C85.5936 96.8694 85.6419 96.7484 85.7287 96.6125C85.7547 96.5679 85.8073 96.5352 85.8867 96.5144C85.9484 96.4982 86.008 96.4919 86.0655 96.4956ZM91.4039 93.1417C91.5023 93.0499 91.6086 92.8806 91.7228 92.6338C91.8347 92.3782 91.9444 92.1326 92.0521 91.897C92.1575 91.6525 92.2464 91.5067 92.3188 91.4594C92.3485 91.3573 92.3773 91.2696 92.4052 91.1963C92.433 91.123 92.4841 91.0484 92.5583 90.9723C92.6322 90.6796 92.7605 90.415 92.9434 90.1784C93.1327 89.9308 93.301 89.6745 93.4481 89.4096C93.5971 89.2951 93.7437 89.1717 93.888 89.0396C94.0412 88.9051 94.1864 88.7585 94.3238 88.5999C94.6073 88.2803 94.9595 88.0605 95.3803 87.9405C95.5974 87.9777 95.7939 87.9543 95.9698 87.8704C96.1368 87.7888 96.3203 87.7877 96.5202 87.8671C96.6612 88.0091 96.7672 88.0896 96.8382 88.1087C96.9091 88.1277 96.9748 88.1623 97.0351 88.2124C97.1635 88.4143 97.2546 88.5458 97.3084 88.6071C97.371 88.666 97.4172 88.734 97.4468 88.811C97.4904 88.9409 97.5293 89.0532 97.5637 89.1478C97.5956 89.2337 97.6241 89.3063 97.6492 89.3657C97.6881 89.4779 97.7171 89.5881 97.7361 89.6962C97.8013 90.1597 97.8313 90.6325 97.8261 91.1145C97.8224 91.172 97.8186 91.2295 97.8149 91.287C97.8112 91.3446 97.8086 91.4065 97.8072 91.4728C97.8021 91.5967 97.7846 91.7097 97.7549 91.8117C97.6667 92.014 97.6101 92.1749 97.585 92.2946C97.5427 92.4565 97.5097 92.5641 97.4861 92.6175C97.4081 92.7511 97.3322 92.8747 97.2584 92.9883C97.1934 93.0996 97.1305 93.201 97.0697 93.2923C97.002 93.3573 96.9354 93.4266 96.8699 93.5004C96.8022 93.5653 96.7356 93.6346 96.6702 93.7084C96.5458 93.8447 96.388 93.9616 96.1969 94.0589L95.9971 94.2669C95.9316 94.3407 95.8516 94.3947 95.7569 94.429C95.6284 94.5853 95.4764 94.7242 95.301 94.8457C95.2221 94.9041 95.1388 94.9637 95.0511 95.0245C94.9723 95.0829 94.8901 95.1469 94.8047 95.2165C94.6864 95.3041 94.588 95.3959 94.5096 95.4919C94.4312 95.588 94.3263 95.6909 94.195 95.8008C94.1226 95.8481 94.0029 95.9126 93.8358 95.9942C93.6753 96.0646 93.5644 96.1268 93.5032 96.1806C93.6377 96.3337 93.7308 96.5448 93.7827 96.8139C93.8388 97.063 93.9408 97.2718 94.0887 97.4403C94.3318 97.4329 94.5935 97.4066 94.8737 97.3612C95.1539 97.3158 95.4128 97.2431 95.6504 97.1429C95.6921 97.1225 95.7327 97.0977 95.7722 97.0685C95.8204 97.037 95.8687 97.0054 95.9169 96.9739C95.9652 96.9424 96.0134 96.9108 96.0617 96.8793C96.11 96.8478 96.1594 96.8206 96.2099 96.7979C96.3946 96.7117 96.5726 96.6178 96.7438 96.5163C96.915 96.4147 97.0595 96.3013 97.1774 96.1761C97.6424 95.8654 98.0734 95.4977 98.4707 95.0728C98.8679 94.648 99.1965 94.2129 99.4564 93.7677C99.6309 93.571 99.8136 93.3157 100.004 93.0017C100.195 92.6876 100.333 92.4063 100.419 92.1577C100.609 91.8061 100.785 91.5243 100.946 91.3123C101.107 91.1004 101.278 90.98 101.459 90.9513C101.6 90.9143 101.758 90.9621 101.935 91.0948C102.111 91.2276 102.145 91.4117 102.037 91.6474C101.898 91.7972 101.754 92.0045 101.607 92.2694C101.469 92.5319 101.305 92.7351 101.117 92.8788C100.993 93.0152 100.845 93.2612 100.675 93.617C100.509 93.9528 100.366 94.2165 100.247 94.4081C100.221 94.4526 100.192 94.5027 100.159 94.5584C100.127 94.614 100.085 94.672 100.035 94.7323C99.9437 94.8506 99.8755 94.9675 99.8304 95.083C99.6174 95.384 99.4039 95.6474 99.19 95.8733C99.0838 95.8635 99.009 95.902 98.9659 95.9888C98.912 96.1066 98.86 96.1956 98.8099 96.2559C98.7881 96.2805 98.7663 96.3051 98.7445 96.3297C98.7227 96.3542 98.6965 96.38 98.6658 96.4069C98.6352 96.4338 98.609 96.4595 98.5872 96.4841C98.5654 96.5087 98.5435 96.5333 98.5217 96.5578C98.4131 96.7183 98.2913 96.8823 98.1563 97.0497C98.0212 97.2172 97.8771 97.3681 97.724 97.5026C97.5755 97.6547 97.4247 97.798 97.2715 97.9325C97.1207 98.0758 96.9664 98.2059 96.8086 98.3228C96.6509 98.4396 96.4966 98.5697 96.3458 98.713C96.2038 98.854 96.0641 99.0038 95.9267 99.1624L95.6462 99.2786C95.6045 99.299 95.5616 99.315 95.5175 99.3265C95.4757 99.3469 95.434 99.3673 95.3922 99.3877C95.3045 99.4485 95.2166 99.4905 95.1284 99.5136C95.0403 99.5368 94.9255 99.5481 94.784 99.5476C94.1605 99.5419 93.6103 99.3849 93.1335 99.0767C93.0667 99.0377 92.9966 99.0043 92.9233 98.9764C92.8566 98.9374 92.7865 98.904 92.7132 98.8762C92.5444 98.8075 92.4219 98.736 92.3459 98.6617C92.2318 98.5504 92.098 98.364 91.9445 98.1028C91.7822 97.8439 91.632 97.5771 91.4938 97.3024C91.3533 97.0189 91.2622 96.7978 91.2205 96.6392C91.2456 96.5195 91.2554 96.3237 91.2499 96.0518C91.2421 95.7712 91.2267 95.4972 91.2036 95.23C91.1781 94.954 91.1515 94.763 91.1237 94.6573C91.1497 94.6127 91.1901 94.4796 91.2449 94.2579C91.2886 94.0296 91.3279 93.8026 91.3627 93.5766C91.4041 93.3396 91.4178 93.1946 91.4039 93.1417ZM95.2168 90.3301C95.1351 90.5212 95.0511 90.7035 94.9647 90.877C94.8784 91.0505 94.7721 91.2198 94.6458 91.3849C94.591 91.6066 94.514 91.8154 94.4146 92.0111C94.3153 92.2069 94.2136 92.3938 94.1097 92.5719C94.0762 92.7315 94.0258 92.8625 93.9585 92.965C93.8912 93.0675 93.8163 93.1768 93.7337 93.2927C93.67 93.5168 93.5777 93.739 93.4565 93.9593C93.3354 94.1796 93.3534 94.3916 93.5106 94.5954C93.7138 94.5796 93.9008 94.5022 94.0715 94.3631C94.2423 94.224 94.3889 94.1006 94.5115 93.993C94.5704 93.9304 94.6305 93.8722 94.6917 93.8184C94.7618 93.7623 94.8275 93.7073 94.8887 93.6535C94.95 93.5997 95.0112 93.546 95.0725 93.4922C95.1337 93.4384 95.1894 93.3813 95.2395 93.321L95.7464 92.4527C95.8267 92.3279 95.9024 92.1855 95.9734 92.0255C96.0013 91.9522 96.0291 91.8789 96.057 91.8056C96.0913 91.7212 96.1257 91.6368 96.16 91.5524C96.1531 91.3469 96.1762 91.1476 96.2291 90.9546C96.2885 90.7505 96.2851 90.5582 96.2188 90.3777C96.1892 90.3007 96.134 90.2163 96.0533 90.1244C95.9726 90.0325 95.9197 89.9569 95.8947 89.8975C95.7096 89.9461 95.5811 90.0129 95.5091 90.0978C95.4743 90.1446 95.4295 90.1894 95.3748 90.232C95.3265 90.2636 95.2739 90.2963 95.2168 90.3301ZM112.639 100.142C112.695 100.07 112.749 99.9712 112.801 99.8446L112.93 99.528C112.953 99.4747 112.977 99.4213 113.001 99.368C113.024 99.3147 113.049 99.2657 113.075 99.2212C113.099 99.1678 113.123 99.1145 113.146 99.0612C113.17 99.0078 113.192 98.9501 113.214 98.8879C113.238 98.8346 113.257 98.7824 113.272 98.7313C113.295 98.678 113.315 98.6258 113.329 98.5748C113.353 98.4839 113.4 98.3772 113.472 98.2547C113.501 98.1527 113.526 98.0849 113.545 98.0516C113.584 97.9848 113.598 97.9105 113.586 97.8289C113.699 97.3279 113.767 96.8529 113.791 96.4038C113.802 96.1936 113.811 95.9791 113.82 95.7601C113.83 95.5499 113.843 95.3298 113.858 95.0997C113.931 94.9109 113.966 94.7414 113.965 94.5911C113.967 94.4208 113.991 94.2448 114.038 94.0629C114.086 93.8147 114.094 93.577 114.062 93.3496C114.036 93.1399 114.053 92.8999 114.113 92.6294C114.19 92.3455 114.209 92.0247 114.171 91.667C114.152 91.4838 114.137 91.3038 114.128 91.127C114.12 90.9503 114.115 90.7724 114.115 90.5933C114.101 90.4652 114.088 90.346 114.078 90.2356C114.074 90.114 114.069 90.0025 114.061 89.9009C114.053 89.7993 114.045 89.6977 114.037 89.5961C114.029 89.4945 114.017 89.394 114 89.2947C113.988 89.2131 113.976 89.1314 113.964 89.0498C113.961 88.9658 113.953 88.883 113.941 88.8013C113.924 88.6269 113.88 88.4782 113.81 88.3552C113.778 88.2694 113.72 88.2093 113.635 88.175C113.571 88.1448 113.504 88.087 113.434 88.0016C113.398 87.9357 113.383 87.8784 113.389 87.8297C113.393 87.7722 113.369 87.7172 113.317 87.6648C113.347 87.5627 113.449 87.4465 113.622 87.3162C113.795 87.1859 113.947 87.0846 114.079 87.0123C114.189 87.0021 114.291 86.9942 114.384 86.9887C114.477 86.9832 114.547 87.0022 114.597 87.0458C114.676 86.9874 114.746 86.9689 114.808 86.9902C114.873 87.0204 114.95 87.0283 115.041 87.014C115.076 87.0047 115.126 86.982 115.192 86.9458C115.258 86.9096 115.309 86.8869 115.344 86.8777C115.662 86.8694 115.917 86.8166 116.108 86.7192C116.299 86.6219 116.503 86.5166 116.718 86.4035C116.856 86.32 116.995 86.2553 117.133 86.2094C117.287 86.1501 117.417 86.0878 117.522 86.0224C117.623 85.9394 117.689 85.8844 117.719 85.8575C117.778 85.7949 117.838 85.7511 117.897 85.726C117.976 85.6676 118.056 85.6324 118.138 85.6203C118.193 85.6153 118.276 85.5888 118.385 85.5411C118.462 85.5114 118.556 85.4539 118.665 85.3686C118.759 85.2967 118.868 85.2633 118.992 85.2685C119.238 85.1285 119.451 85.0065 119.631 84.9026C119.811 84.7988 120.015 84.6791 120.244 84.5438C120.322 84.6268 120.387 84.6946 120.439 84.747C120.488 84.7906 120.519 84.8201 120.532 84.8354C120.568 84.8637 120.591 84.8955 120.6 84.9308C120.605 85.0236 120.569 85.1179 120.491 85.214C120.412 85.31 120.317 85.3255 120.206 85.2605C120.048 85.3774 119.939 85.4627 119.877 85.5165C119.816 85.5703 119.755 85.6241 119.694 85.6779C119.498 85.7952 119.327 85.8967 119.18 85.9825C119.024 86.0706 118.877 86.194 118.74 86.3526C118.654 86.3846 118.57 86.421 118.486 86.4618C118.411 86.5002 118.341 86.5376 118.275 86.5737L117.798 86.8547C117.723 86.8932 117.65 86.9361 117.577 86.9834C117.502 87.0219 117.429 87.0648 117.356 87.1121C117.031 87.452 116.744 87.6876 116.496 87.8188C116.239 87.9524 116.002 88.1276 115.786 88.3447C115.686 88.4653 115.61 88.5889 115.559 88.7155C115.507 88.8422 115.524 88.9978 115.611 89.1825C115.726 89.4066 115.768 89.5841 115.736 89.7149C115.707 89.8169 115.693 89.9619 115.695 90.1498C115.694 90.2161 115.692 90.2825 115.691 90.3488C115.696 90.404 115.697 90.4604 115.693 90.5179C115.692 90.6218 115.671 90.7403 115.631 90.8735C115.618 91.0748 115.626 91.2472 115.654 91.3905C115.682 91.5339 115.694 91.6863 115.689 91.8477C115.688 92.0931 115.68 92.2977 115.667 92.4615C115.654 92.6628 115.661 92.854 115.69 93.0349C115.704 93.0878 115.718 93.1407 115.732 93.1936C115.746 93.2465 115.765 93.3026 115.79 93.362C115.815 93.4214 115.835 93.4775 115.849 93.5304C115.865 93.5921 115.881 93.6538 115.897 93.7155C115.937 93.8654 115.949 94.0554 115.934 94.2855L115.898 94.9027C115.887 95.0377 115.875 95.1727 115.863 95.3077C115.854 95.4515 115.846 95.5997 115.839 95.7524C115.824 96.02 115.787 96.3079 115.727 96.6159C115.704 96.7444 115.684 96.8673 115.668 96.9847C115.654 97.1109 115.638 97.2283 115.619 97.3368C115.589 97.5804 115.546 97.7942 115.491 97.9784C115.252 98.7196 114.985 99.4403 114.688 100.14C114.391 100.84 114.07 101.537 113.725 102.231C113.615 102.316 113.524 102.416 113.45 102.53C113.376 102.643 113.307 102.756 113.242 102.867C113.112 102.948 113.024 103.023 112.976 103.092C112.922 103.173 112.853 103.252 112.77 103.33C112.581 103.399 112.386 103.464 112.185 103.526C111.985 103.588 111.824 103.569 111.704 103.469C111.572 103.541 111.477 103.557 111.419 103.516C111.383 103.487 111.299 103.434 111.165 103.356C111.058 103.234 110.972 103.105 110.909 102.971C110.845 102.837 110.77 102.678 110.684 102.493C110.664 102.451 110.644 102.414 110.626 102.381C110.608 102.348 110.59 102.315 110.572 102.282C110.531 102.199 110.503 102.126 110.486 102.064C110.452 101.97 110.421 101.87 110.393 101.764C110.359 101.669 110.329 101.573 110.304 101.476C110.243 101.247 110.204 101.027 110.186 100.815C110.172 100.724 110.173 100.601 110.188 100.446C110.204 100.292 110.203 100.16 110.184 100.052C110.18 99.8928 110.153 99.7206 110.104 99.5355C110.084 99.4562 110.066 99.3713 110.052 99.2808C110.031 99.2015 110.013 99.1166 109.999 99.0261C109.871 98.3246 109.793 97.596 109.764 96.8403C109.748 96.458 109.73 96.0857 109.71 95.7234C109.693 95.3699 109.672 95.0219 109.648 94.6795C109.653 94.5557 109.649 94.4341 109.637 94.3149C109.62 94.2156 109.614 94.0852 109.619 93.9238C109.623 93.5081 109.636 93.1277 109.658 92.7826C109.681 92.4374 109.728 92.1141 109.799 91.8126C109.818 91.704 109.822 91.6133 109.813 91.5405C109.803 91.4676 109.807 91.3769 109.826 91.2684C109.876 91.0666 109.895 90.9205 109.88 90.83C109.868 90.7483 109.871 90.6532 109.89 90.5447C109.899 90.2218 109.918 89.9154 109.945 89.6254C109.973 89.3355 110.009 89.0245 110.053 88.6923C110.06 88.5021 110.073 88.3008 110.093 88.0883C110.112 87.8758 110.13 87.6921 110.146 87.5372C110.163 87.3535 110.186 87.2062 110.213 87.0953C110.232 87.0243 110.243 86.9557 110.244 86.8893C110.254 86.8207 110.26 86.7532 110.261 86.6868C110.261 86.6117 110.255 86.5565 110.246 86.5212C110.237 86.486 110.234 86.4396 110.238 86.382C110.244 86.1918 110.297 85.9613 110.395 85.6904C110.422 85.5044 110.449 85.3227 110.478 85.1455C110.505 84.9595 110.531 84.7735 110.558 84.5875C110.584 84.4014 110.611 84.2154 110.637 84.0294C110.664 83.8434 110.689 83.6529 110.713 83.4581C110.724 83.3894 110.735 83.3252 110.747 83.2653C110.767 83.1944 110.786 83.1234 110.805 83.0524C110.843 82.9105 110.864 82.7776 110.869 82.6537C110.867 82.2867 110.891 82.0024 110.942 81.8006L111.084 81.2119C111.103 81.1409 111.119 81.0755 111.132 81.0157C111.151 80.9447 111.17 80.8737 111.189 80.8028C111.208 80.7318 111.228 80.6652 111.249 80.6031C111.268 80.5321 111.292 80.46 111.32 80.3867C111.37 80.1849 111.421 79.9831 111.472 79.7813C111.52 79.5707 111.568 79.3601 111.616 79.1495C111.722 78.7259 111.843 78.3266 111.98 77.9513C112.24 77.6475 112.419 77.327 112.519 76.9897C112.7 76.782 112.863 76.5224 113.007 76.2112C113.132 75.9333 113.275 75.6696 113.435 75.4201C113.496 75.3287 113.557 75.2374 113.618 75.146C113.676 75.0458 113.73 74.9468 113.78 74.8489C113.83 74.751 113.885 74.6564 113.946 74.565C114.013 74.4625 114.081 74.3644 114.151 74.2707C114.19 74.2039 114.236 74.1448 114.288 74.0933C114.332 74.0442 114.366 73.9785 114.392 73.8964C114.469 73.8667 114.55 73.7796 114.634 73.6348C114.717 73.5189 114.805 73.3874 114.898 73.2404C114.991 73.0933 115.066 72.9465 115.121 72.7999C115.26 72.7165 115.38 72.5813 115.481 72.3943C115.583 72.2074 115.721 72.0676 115.894 71.9748C116.075 71.9461 116.182 71.904 116.214 71.8483C116.234 71.8149 116.272 71.7625 116.328 71.6911C116.603 71.9486 116.769 72.1832 116.824 72.3947C116.882 72.6151 116.902 72.8691 116.883 73.1567C116.877 73.2055 116.868 73.2597 116.855 73.3196C116.849 73.3683 116.846 73.4258 116.844 73.4922C116.843 73.5585 116.836 73.6216 116.823 73.6814C116.811 73.7413 116.798 73.8011 116.786 73.861C116.771 73.9496 116.756 74.0338 116.739 74.1135C116.731 74.191 116.728 74.2673 116.728 74.3425C116.723 74.4663 116.708 74.6069 116.684 74.7642C116.712 74.9075 116.713 75.091 116.687 75.3146C116.675 75.412 116.663 75.5095 116.651 75.6069C116.636 75.6955 116.623 75.7885 116.611 75.8859C116.599 75.9833 116.597 76.0828 116.605 76.1844C116.613 76.286 116.613 76.3944 116.605 76.5094C116.571 76.5938 116.546 76.6616 116.532 76.7126L116.465 76.9422C116.441 76.9956 116.414 77.0733 116.385 77.1753C116.376 77.2152 116.367 77.2507 116.356 77.2818C116.345 77.3128 116.335 77.3439 116.324 77.375C116.259 77.4863 116.221 77.5763 116.211 77.645C116.199 77.7424 116.186 77.8166 116.171 77.8676C116.124 78.0119 116.064 78.1784 115.991 78.3672C115.929 78.5249 115.871 78.7003 115.818 78.8933C115.773 79.0088 115.724 79.1254 115.67 79.2432C115.623 79.3499 115.576 79.461 115.531 79.5765C115.484 79.6832 115.438 79.7943 115.393 79.9098C115.348 80.0253 115.307 80.1397 115.271 80.2528L115.157 80.6787C115.125 80.8095 115.074 80.9361 115.002 81.0586C114.965 81.1342 114.943 81.2107 114.935 81.2882C114.925 81.3569 114.907 81.4135 114.881 81.458C114.816 81.6069 114.752 81.7558 114.687 81.9047C114.629 82.0425 114.572 82.1846 114.517 82.3312C114.409 82.6044 114.255 82.876 114.052 83.146C113.996 83.3965 113.903 83.6186 113.775 83.8125C113.653 83.9953 113.537 84.1956 113.424 84.4137C113.14 84.6581 112.992 84.9373 112.98 85.2514C112.975 85.5543 112.858 85.8442 112.629 86.1211C112.583 86.303 112.532 86.486 112.476 86.6701C112.421 86.8543 112.339 87.0266 112.231 87.1871C112.142 87.5684 112.016 87.9126 111.852 88.2196C111.852 88.3987 111.847 88.579 111.838 88.7603C111.827 88.9329 111.807 89.1078 111.778 89.285C111.758 89.4599 111.74 89.6392 111.722 89.8229C111.711 89.9955 111.705 90.1713 111.705 90.3504C111.708 90.4344 111.711 90.5183 111.715 90.6023C111.718 90.6863 111.722 90.7746 111.728 90.8674C111.737 91.0818 111.736 91.2564 111.724 91.3914C111.738 91.4819 111.734 91.5726 111.711 91.6635C111.688 91.7544 111.683 91.8451 111.698 91.9356C111.696 92.0019 111.699 92.0671 111.707 92.1311C111.714 92.1952 111.721 92.2592 111.729 92.3232C111.736 92.3872 111.744 92.4513 111.751 92.5153C111.758 92.5793 111.761 92.6445 111.76 92.7108C111.762 92.8611 111.786 93.0057 111.831 93.1444C111.859 93.2126 111.879 93.2875 111.891 93.3692C111.911 93.4485 111.929 93.5334 111.943 93.6239C111.964 93.8447 111.985 93.9616 112.007 93.9746C112.03 93.9876 112.045 94.0117 112.055 94.047C112.092 94.1881 112.112 94.3713 112.114 94.5968C112.115 94.851 112.133 95.063 112.168 95.2328C112.198 95.4889 112.216 95.7385 112.224 95.9816C112.231 96.2247 112.236 96.459 112.239 96.6845C112.22 96.793 112.216 96.8837 112.226 96.9565C112.235 97.0294 112.231 97.1201 112.212 97.2286C112.171 97.5032 112.15 97.7257 112.147 97.896C112.145 98.0662 112.145 98.2265 112.147 98.3768L112.09 98.9147C112.073 99.136 112.103 99.3213 112.18 99.4707C112.219 99.583 112.298 99.6893 112.419 99.7895C112.528 99.8833 112.602 100.001 112.639 100.142ZM114.729 76.5784C114.598 76.7259 114.482 76.8743 114.38 77.0237C114.278 77.173 114.172 77.328 114.064 77.4885C113.886 77.7802 113.719 78.0785 113.564 78.3832C113.431 78.7009 113.326 79.0018 113.25 79.2857C113.182 79.5672 113.062 79.8439 112.888 80.1157C112.823 80.4061 112.757 80.6733 112.689 80.9173C112.628 81.1502 112.569 81.3587 112.514 81.5429C112.404 81.9112 112.322 82.3002 112.27 82.7098C112.273 82.7938 112.27 82.8745 112.263 82.952C112.263 83.0271 112.255 83.1046 112.239 83.1844C112.216 83.3129 112.195 83.4646 112.175 83.6395C112.156 83.748 112.133 83.8577 112.106 83.9686C112.085 84.0683 112.055 84.1704 112.016 84.2748C111.939 84.4835 111.973 84.6633 112.116 84.8141C112.294 84.5223 112.435 84.2354 112.54 83.9534C112.655 83.6403 112.786 83.3469 112.931 83.0732C113.084 82.7597 113.165 82.531 113.174 82.3872C113.273 82.1163 113.37 81.8929 113.465 81.7171C113.564 81.5214 113.644 81.3403 113.704 81.1737C113.799 81.0355 113.877 80.8643 113.936 80.6602C114.121 80.3949 114.256 80.1192 114.341 79.833C114.443 79.5045 114.553 79.207 114.671 78.9402C114.704 78.8846 114.719 78.8336 114.716 78.7872C114.713 78.7408 114.728 78.6897 114.761 78.6341C114.843 78.4805 114.88 78.3718 114.873 78.3077C114.865 78.2437 114.877 78.1795 114.907 78.115C114.926 78.0064 114.944 77.8979 114.963 77.7893C114.979 77.672 114.992 77.5602 115.002 77.4539C115.02 77.3454 115.035 77.238 115.044 77.1318C115.061 77.0144 115.078 76.9014 115.097 76.7929C114.981 76.7103 114.858 76.6388 114.729 76.5784ZM130.705 80.8894C130.796 80.875 130.862 80.8952 130.905 80.95C130.945 80.9959 131.001 81.0096 131.071 80.9911C131.151 81.1493 131.147 81.2776 131.059 81.3759C130.97 81.4654 130.961 81.576 131.034 81.7078C130.903 81.8553 130.726 81.9724 130.504 82.0591C130.273 82.1481 130.121 82.287 130.048 82.4758C129.779 82.7067 129.481 82.8838 129.156 83.0071C128.993 83.0688 128.823 83.1416 128.648 83.2255C128.478 83.2983 128.306 83.3766 128.13 83.4606C127.971 83.6438 127.87 83.7456 127.828 83.766C127.769 83.791 127.71 83.8348 127.651 83.8974C127.447 83.8756 127.253 83.8889 127.068 83.9376C126.883 83.9863 126.682 84.0108 126.465 84.0112C126.377 84.0719 126.281 84.1162 126.175 84.144C126.069 84.1718 125.972 84.2161 125.885 84.2768C125.856 84.454 125.862 84.622 125.904 84.7807C125.948 84.9481 125.963 85.1138 125.95 85.2775L125.875 85.6366L125.901 85.8982C125.911 86.0087 125.911 86.0982 125.901 86.1669C125.879 86.229 125.856 86.3011 125.83 86.3833C125.805 86.4654 125.804 86.5505 125.827 86.6386C125.745 86.8297 125.7 87.016 125.691 87.1974C125.689 87.4052 125.633 87.585 125.522 87.7366C125.518 87.9357 125.471 88.0987 125.382 88.2258C125.295 88.3617 125.217 88.5141 125.148 88.6829C125.024 88.9984 124.912 89.2727 124.814 89.5061C124.715 89.7394 124.56 89.959 124.351 90.1649C124.299 90.3291 124.219 90.4539 124.11 90.5392C124.045 90.6505 123.997 90.7572 123.968 90.8593L123.522 91.3157C123.345 91.5035 123.166 91.6449 122.983 91.74C122.702 91.8893 122.409 91.9569 122.104 91.9429C121.798 91.9289 121.502 91.875 121.213 91.7812C121.05 91.8428 120.914 91.8456 120.805 91.7894C120.699 91.7421 120.565 91.7161 120.403 91.7114C120.163 91.586 119.91 91.483 119.643 91.4022C119.366 91.3149 119.147 91.165 118.988 90.9524L118.716 90.4019C118.634 90.2349 118.548 90.069 118.458 89.9043C118.383 89.7637 118.335 89.5974 118.313 89.4053C118.297 89.2397 118.255 89.0622 118.187 88.8729C118.161 88.7759 118.138 88.6878 118.117 88.6084C118.094 88.5203 118.07 88.4465 118.045 88.3871C118.001 88.2572 117.998 88.0837 118.035 87.8666C118.058 87.7381 118.074 87.6207 118.084 87.5145C118.094 87.4083 118.098 87.3176 118.098 87.2424C118.097 87.1673 118.097 87.0965 118.098 87.0302C118.097 86.955 118.099 86.8887 118.103 86.8312C118.117 86.7801 118.132 86.7291 118.147 86.6781C118.16 86.6182 118.172 86.5584 118.185 86.4986C118.197 86.4387 118.211 86.3833 118.226 86.3323C118.247 86.2701 118.27 86.2123 118.293 86.159C118.358 85.9725 118.439 85.7814 118.539 85.5857C118.638 85.3899 118.74 85.203 118.844 85.0249C118.906 84.8672 118.973 84.7271 119.044 84.6046C119.161 84.4042 119.276 84.2326 119.389 84.0898C119.503 83.9469 119.624 83.7642 119.754 83.5415C119.776 83.4794 119.808 83.4237 119.852 83.3746L119.983 83.2271C120.131 83.0749 120.271 82.9439 120.402 82.834C120.534 82.7241 120.685 82.5996 120.855 82.4605C121.002 82.3371 121.126 82.2527 121.227 82.2073C121.293 82.1711 121.36 82.1394 121.428 82.112C121.503 82.0735 121.582 82.0339 121.666 81.9931L121.983 81.9097C122.08 81.8842 122.163 81.8434 122.233 81.7873C122.143 81.6601 122.18 81.5469 122.342 81.4477C122.504 81.3485 122.632 81.2961 122.725 81.2906C122.901 81.2442 123.053 81.2468 123.179 81.2984C123.306 81.3499 123.427 81.417 123.543 81.4996C123.752 81.5766 123.994 81.7108 124.271 81.902C124.327 81.9345 124.378 81.9494 124.424 81.9466C124.47 81.9438 124.521 81.9587 124.577 81.9912C124.675 82.0784 124.749 82.1626 124.799 82.2438C124.853 82.3427 124.936 82.4246 125.047 82.4896C125.11 82.5109 125.174 82.5411 125.241 82.5801C125.308 82.6191 125.361 82.6803 125.402 82.7638C125.606 82.7857 125.787 82.7946 125.946 82.7905C126.035 82.8049 126.13 82.7894 126.231 82.7439C126.323 82.7008 126.433 82.6718 126.562 82.657C126.643 82.645 126.728 82.6462 126.817 82.6606C126.894 82.6685 126.977 82.6609 127.065 82.6377C127.195 82.5941 127.331 82.5206 127.474 82.4172C127.61 82.3249 127.779 82.271 127.983 82.2552C128.263 82.2474 128.534 82.148 128.795 81.957C129.053 81.7571 129.328 81.6001 129.618 81.4861C129.706 81.4629 129.767 81.4423 129.8 81.4242C129.833 81.4061 129.893 81.3855 129.981 81.3623C130.051 81.2686 130.152 81.1856 130.284 81.1133C130.415 81.041 130.556 80.9663 130.705 80.8894ZM123.35 83.6707C123.132 83.5583 123.004 83.4836 122.966 83.4465C122.917 83.4028 122.878 83.3801 122.849 83.3782C122.749 83.3198 122.65 83.2988 122.55 83.3155C122.495 83.3206 122.44 83.3257 122.385 83.3308C122.338 83.3335 122.292 83.3363 122.245 83.3391C121.949 83.3603 121.724 83.4526 121.569 83.6158C121.497 83.7007 121.42 83.7823 121.337 83.8607C121.262 83.9368 121.188 84.0128 121.114 84.0889C120.878 84.3394 120.689 84.6246 120.547 84.9447C120.517 85.0467 120.486 85.1587 120.452 85.2808C120.418 85.4028 120.399 85.5301 120.397 85.6628C120.363 85.8224 120.335 85.9664 120.312 86.0949C120.289 86.2234 120.281 86.3716 120.288 86.5395C120.244 86.7302 120.229 86.8896 120.244 87.0176C120.251 87.0816 120.257 87.1412 120.262 87.1965C120.265 87.2428 120.268 87.2892 120.271 87.3356C120.285 87.4261 120.296 87.5221 120.304 87.6237C120.31 87.7165 120.316 87.8137 120.324 87.9153C120.338 88.1473 120.36 88.3206 120.39 88.4352C120.422 88.4834 120.467 88.547 120.525 88.6259C120.583 88.7048 120.635 88.7572 120.68 88.7832C120.738 88.8621 120.803 88.9486 120.875 89.0428C120.947 89.137 121.007 89.2059 121.057 89.2495C121.186 89.3475 121.321 89.3967 121.463 89.3972C121.538 89.3963 121.619 89.3986 121.705 89.4042C121.789 89.401 121.879 89.401 121.974 89.4043C122.195 89.4591 122.339 89.4684 122.405 89.4323C122.489 89.3915 122.539 89.3687 122.557 89.3641C122.783 89.2575 122.961 89.1072 123.089 88.9133C123.201 88.7329 123.345 88.5632 123.52 88.4041C123.563 88.2798 123.604 88.151 123.645 88.0179C123.694 87.8825 123.748 87.7459 123.806 87.6081C123.861 87.4615 123.91 87.3216 123.95 87.1885C123.997 87.0442 124.039 86.9011 124.077 86.7592C124.108 86.6947 124.131 86.6038 124.147 86.4864C124.153 86.4377 124.16 86.3934 124.169 86.3535C124.175 86.3048 124.182 86.2605 124.19 86.2206C124.274 86.0383 124.311 85.9439 124.3 85.9374C124.289 85.9309 124.286 85.9033 124.292 85.8546C124.337 85.56 124.337 85.3434 124.291 85.2047C124.245 85.0659 124.208 84.9249 124.18 84.7815C124.11 84.6962 124.044 84.6052 123.981 84.5087C123.918 84.4122 123.853 84.3113 123.788 84.2059C123.655 83.9864 123.509 83.808 123.35 83.6707ZM140.781 78.2411C140.872 78.2267 140.938 78.2469 140.981 78.3017C141.021 78.3476 141.077 78.3613 141.147 78.3428C141.226 78.501 141.222 78.6293 141.135 78.7276C141.046 78.8171 141.037 78.9278 141.109 79.0595C140.978 79.207 140.802 79.3241 140.58 79.4108C140.349 79.4998 140.197 79.6387 140.124 79.8275C139.855 80.0584 139.557 80.2356 139.231 80.3589C139.069 80.4205 138.899 80.4933 138.723 80.5772C138.554 80.65 138.381 80.7284 138.206 80.8123C138.046 80.9955 137.946 81.0973 137.904 81.1177C137.845 81.1427 137.786 81.1865 137.727 81.2491C137.523 81.2273 137.329 81.2407 137.144 81.2893C136.958 81.338 136.757 81.3625 136.541 81.3629C136.453 81.4237 136.356 81.4679 136.251 81.4957C136.145 81.5235 136.048 81.5678 135.96 81.6286C135.932 81.8058 135.938 81.9737 135.98 82.1324C136.024 82.2999 136.039 82.4655 136.026 82.6293L135.95 82.9883L135.977 83.25C135.987 83.3604 135.987 83.4499 135.977 83.5186C135.955 83.5807 135.932 83.6529 135.906 83.735C135.881 83.8171 135.879 83.9022 135.903 83.9904C135.821 84.1815 135.776 84.3677 135.767 84.5491C135.765 84.757 135.708 84.9367 135.598 85.0884C135.593 85.2874 135.547 85.4504 135.457 85.5775C135.371 85.7134 135.293 85.8658 135.224 86.0347C135.1 86.3501 134.988 86.6245 134.889 86.8578C134.79 87.0911 134.636 87.3107 134.426 87.5166C134.375 87.6809 134.295 87.8056 134.185 87.891C134.12 88.0023 134.073 88.109 134.043 88.211L133.598 88.6674C133.421 88.8552 133.241 88.9967 133.059 89.0917C132.778 89.241 132.485 89.3086 132.179 89.2946C131.874 89.2806 131.577 89.2267 131.289 89.1329C131.126 89.1946 130.99 89.1973 130.881 89.1412C130.774 89.0938 130.64 89.0678 130.479 89.0631C130.239 88.9378 129.985 88.8347 129.719 88.7539C129.442 88.6666 129.223 88.5167 129.064 88.3042L128.792 87.7536C128.71 87.5866 128.624 87.4207 128.534 87.256C128.459 87.1154 128.411 86.9491 128.388 86.757C128.373 86.5914 128.331 86.4139 128.263 86.2246C128.237 86.1277 128.214 86.0395 128.193 85.9602C128.17 85.872 128.146 85.7982 128.121 85.7389C128.077 85.6089 128.074 85.4354 128.111 85.2183C128.134 85.0898 128.15 84.9725 128.16 84.8662C128.17 84.76 128.174 84.6693 128.173 84.5942C128.172 84.519 128.173 84.4482 128.174 84.3819C128.173 84.3068 128.175 84.2404 128.178 84.1829C128.193 84.1319 128.208 84.0808 128.223 84.0298C128.235 83.97 128.248 83.9101 128.261 83.8503C128.273 83.7904 128.287 83.735 128.302 83.684C128.323 83.6218 128.346 83.5641 128.369 83.5107C128.433 83.3242 128.515 83.1331 128.614 82.9374C128.714 82.7416 128.815 82.5547 128.919 82.3766C128.981 82.2189 129.048 82.0788 129.12 81.9564C129.237 81.756 129.352 81.5844 129.465 81.4415C129.578 81.2987 129.7 81.1159 129.83 80.8933C129.851 80.8311 129.884 80.7754 129.927 80.7263L130.058 80.5788C130.207 80.4267 130.347 80.2957 130.478 80.1857C130.609 80.0758 130.76 79.9513 130.931 79.8122C131.078 79.6888 131.202 79.6044 131.303 79.559C131.369 79.5228 131.436 79.4911 131.504 79.4637C131.579 79.4253 131.658 79.3856 131.741 79.3448L132.059 79.2614C132.156 79.2359 132.239 79.1951 132.309 79.139C132.219 79.0119 132.255 78.8987 132.418 78.7994C132.58 78.7002 132.708 78.6478 132.801 78.6423C132.977 78.596 133.128 78.5985 133.255 78.6501C133.382 78.7016 133.503 78.7687 133.619 78.8513C133.828 78.9284 134.07 79.0625 134.347 79.2537C134.402 79.2862 134.453 79.3011 134.5 79.2983C134.546 79.2956 134.597 79.3104 134.653 79.3429C134.751 79.4301 134.825 79.5144 134.875 79.5956C134.929 79.6944 135.012 79.7763 135.123 79.8413C135.185 79.8627 135.25 79.8928 135.317 79.9318C135.383 79.9708 135.437 80.0321 135.478 80.1156C135.682 80.1374 135.863 80.1463 136.022 80.1422C136.111 80.1566 136.206 80.1411 136.307 80.0956C136.399 80.0525 136.509 80.0236 136.637 80.0088C136.719 79.9967 136.804 79.9979 136.893 80.0123C136.97 80.0202 137.053 80.0126 137.141 79.9894C137.271 79.9459 137.407 79.8724 137.55 79.769C137.686 79.6767 137.855 79.6227 138.058 79.607C138.339 79.5992 138.61 79.4997 138.871 79.3087C139.129 79.1088 139.403 78.9519 139.694 78.8378C139.782 78.8146 139.843 78.794 139.876 78.7759C139.909 78.7579 139.969 78.7372 140.057 78.7141C140.127 78.6204 140.228 78.5374 140.359 78.465C140.491 78.3927 140.632 78.318 140.781 78.2411ZM133.426 81.0224C133.208 80.9101 133.08 80.8353 133.042 80.7982C132.993 80.7546 132.954 80.7318 132.925 80.73C132.825 80.6715 132.725 80.6506 132.626 80.6672C132.571 80.6723 132.516 80.6774 132.46 80.6825C132.414 80.6853 132.368 80.688 132.321 80.6908C132.025 80.7121 131.8 80.8043 131.645 80.9676C131.573 81.0524 131.495 81.1341 131.412 81.2125C131.338 81.2885 131.264 81.3646 131.19 81.4406C130.954 81.6911 130.765 81.9763 130.623 82.2964C130.593 82.3985 130.561 82.5105 130.527 82.6325C130.493 82.7545 130.475 82.8818 130.472 83.0145C130.439 83.1741 130.411 83.3181 130.388 83.4466C130.365 83.5751 130.357 83.7233 130.363 83.8913C130.319 84.0819 130.305 84.2413 130.319 84.3693C130.327 84.4334 130.333 84.493 130.338 84.5482C130.341 84.5946 130.344 84.641 130.347 84.6874C130.361 84.7778 130.372 84.8739 130.38 84.9755C130.385 85.0682 130.392 85.1654 130.4 85.267C130.414 85.499 130.436 85.6723 130.466 85.7869C130.497 85.8351 130.542 85.8987 130.601 85.9776C130.659 86.0565 130.711 86.1089 130.755 86.1349C130.814 86.2138 130.879 86.3003 130.951 86.3945C131.023 86.4887 131.083 86.5576 131.132 86.6013C131.262 86.6992 131.397 86.7484 131.539 86.7489C131.614 86.748 131.695 86.7504 131.781 86.7559C131.865 86.7527 131.954 86.7527 132.049 86.756C132.271 86.8108 132.415 86.8202 132.481 86.784C132.564 86.7432 132.615 86.7205 132.633 86.7158C132.859 86.6092 133.036 86.4589 133.164 86.2651C133.277 86.0846 133.421 85.9149 133.596 85.7558C133.639 85.6315 133.68 85.5028 133.721 85.3696C133.77 85.2342 133.823 85.0976 133.882 84.9598C133.937 84.8132 133.985 84.6734 134.026 84.5402C134.073 84.396 134.115 84.2529 134.153 84.1109C134.183 84.0464 134.207 83.9555 134.223 83.8382C134.229 83.7894 134.236 83.7451 134.244 83.7053C134.25 83.6565 134.258 83.6122 134.266 83.5723C134.35 83.39 134.387 83.2957 134.375 83.2892C134.364 83.2827 134.362 83.2551 134.368 83.2063C134.413 82.9118 134.412 82.6951 134.367 82.5564C134.321 82.4177 134.284 82.2766 134.255 82.1333C134.186 82.0479 134.119 81.9569 134.056 81.8604C133.993 81.7639 133.929 81.663 133.864 81.5577C133.731 81.3382 133.585 81.1598 133.426 81.0224ZM148.222 82.0247C148.345 81.9923 148.436 81.9779 148.493 81.9817C148.551 81.9854 148.597 81.9826 148.632 81.9734C148.809 81.927 149.001 81.7445 149.209 81.4259C149.424 81.0961 149.598 80.8431 149.731 80.6668C150.071 80.4925 150.302 80.1868 150.423 79.7499C150.55 79.3018 150.718 78.8996 150.926 78.5434C151.192 78.0869 151.398 77.6887 151.545 77.3487C151.697 76.9976 151.853 76.8012 152.012 76.7594C152.153 76.7224 152.271 76.7618 152.368 76.8779C152.489 77.0157 152.575 77.1108 152.627 77.1632C152.601 77.2078 152.597 77.2653 152.615 77.3358C152.636 77.4152 152.635 77.4815 152.611 77.5348C152.59 77.597 152.551 77.6638 152.494 77.7352C152.438 77.8066 152.392 77.8846 152.358 77.969L152.177 78.3558C152.008 78.6453 151.868 78.9929 151.758 79.3988C151.648 79.8047 151.533 80.193 151.414 80.5636C151.301 80.9232 151.152 81.198 150.966 81.3881C150.578 81.8106 150.287 82.2265 150.093 82.6356C149.905 83.0336 149.671 83.378 149.389 83.6688C149.354 83.678 149.33 83.6794 149.319 83.6729C149.308 83.6664 149.294 83.6655 149.276 83.6701C149.197 83.691 149.144 83.7237 149.118 83.7682C149.092 83.8127 149.048 83.8431 148.987 83.8593C148.628 83.8216 148.332 83.7533 148.099 83.6544C147.863 83.5467 147.523 83.2734 147.077 82.8344C146.963 82.723 146.855 82.5961 146.751 82.4536C146.643 82.2936 146.532 82.1578 146.418 82.0465L145.891 81.4924C145.747 81.3416 145.621 81.059 145.512 80.6447C145.466 80.4684 145.414 80.1993 145.357 79.8374C145.299 79.4755 145.26 79.1842 145.24 78.9634C145.039 79.3084 144.877 79.7139 144.754 80.1796C144.69 80.4037 144.63 80.6221 144.573 80.8351C144.516 81.048 144.456 81.2521 144.395 81.4474C144.226 81.9535 144.034 82.4609 143.819 82.9698C143.609 83.4587 143.528 83.8145 143.577 84.0372C143.499 84.1708 143.425 84.3552 143.355 84.5904C143.285 84.8256 143.234 85.0273 143.203 85.1957C143.178 85.353 143.189 85.3927 143.234 85.3147C143.094 85.7851 142.812 86.1654 142.389 86.4557C141.966 86.746 141.551 86.9445 141.146 87.051C141.064 87.0631 140.983 87.0751 140.901 87.0871C140.819 87.0992 140.738 87.1112 140.656 87.1233C140.504 87.1538 140.338 87.1315 140.158 87.0563L139.685 86.8697C139.365 86.8028 139.114 86.6334 138.929 86.3614C138.744 86.0895 138.606 85.7773 138.513 85.4247C138.588 84.8114 138.584 84.2797 138.504 83.8297C138.426 83.3885 138.415 82.9343 138.471 82.4672C138.546 81.75 138.742 81.0766 139.057 80.4472C139.372 79.8178 139.721 79.2266 140.103 78.6737C140.412 78.2345 140.77 77.7493 141.177 77.2183C141.59 76.6761 141.876 76.2382 142.033 75.9047C142.303 75.7865 142.519 75.6402 142.681 75.4658C142.849 75.2803 143.019 75.1036 143.192 74.9357C143.365 74.7678 143.587 74.6479 143.861 74.5761C144.266 74.4695 144.523 74.4775 144.63 74.6C144.738 74.7225 144.895 74.8886 145.101 75.0984C145.139 74.7774 145.149 74.4589 145.132 74.143C145.128 73.9838 145.13 73.828 145.137 73.6753C145.152 73.5204 145.175 73.3731 145.204 73.2335C145.166 72.6591 145.194 72.0298 145.288 71.3456C145.381 70.6613 145.487 70.0255 145.606 69.4383C145.707 68.9595 145.808 68.504 145.911 68.0716C146.021 67.6282 146.097 67.3443 146.14 67.22C146.302 66.725 146.503 66.2904 146.744 65.9161C146.976 65.5441 147.163 65.1605 147.304 64.7652C147.425 64.5073 147.533 64.2197 147.629 63.9024C147.726 63.5564 147.815 63.3398 147.896 63.2526C148.425 63.255 148.736 63.3806 148.829 63.6293C148.923 63.878 149.012 64.1654 149.098 64.4916C149.172 64.7737 149.22 65.0627 149.241 65.3587L148.836 67.4727C148.709 67.9959 148.599 68.5245 148.503 69.0585C148.408 69.5924 148.328 70.1317 148.264 70.6763C148.105 71.3967 147.894 72.0459 147.631 72.6239C147.5 72.9129 147.379 73.2084 147.27 73.5104C147.17 73.81 147.076 74.1173 146.989 74.4323C146.976 74.6336 146.931 74.8387 146.854 75.0474C146.816 75.1518 146.782 75.255 146.752 75.3571C146.72 75.4503 146.689 75.5479 146.659 75.65L146.482 76.9123C146.413 77.0811 146.395 77.2272 146.428 77.3507C146.484 77.4207 146.52 77.4866 146.536 77.5483L146.571 77.6806C146.592 77.7599 146.613 77.8392 146.634 77.9186C146.654 77.9979 146.671 78.0784 146.683 78.16C146.695 78.2417 146.713 78.3266 146.736 78.4148C146.757 78.4941 146.779 78.5778 146.802 78.666C147.038 79.5651 147.305 80.4374 147.603 81.2827C147.584 81.3537 147.577 81.4024 147.584 81.4289C147.617 81.5523 147.717 81.6627 147.884 81.7602C148.048 81.8489 148.161 81.937 148.222 82.0247ZM143.994 76.2657L143.444 76.8626C143.323 76.9415 143.181 77.1156 143.016 77.3851L142.596 78.0468L142.173 78.6952C142.11 78.9568 141.993 79.1948 141.823 79.4091C141.653 79.6234 141.523 79.846 141.433 80.077C141.304 80.3748 141.191 80.7155 141.094 81.0992C140.997 81.4828 140.987 81.7869 141.065 82.0114C141.063 82.1817 141.054 82.3443 141.038 82.4992C141.029 82.6431 141.013 82.7792 140.99 82.9077C140.942 83.1559 140.956 83.4254 141.033 83.7163C141.093 83.9455 141.199 84.0448 141.351 84.0143C141.504 83.9837 141.615 83.9591 141.685 83.9406C141.904 83.6948 142.114 83.3662 142.317 82.9547C142.526 82.5322 142.702 82.1089 142.845 81.6849C142.997 81.2586 143.086 80.9149 143.112 80.6537C143.217 80.2678 143.344 79.8528 143.491 79.4089C143.638 78.965 143.822 78.5537 144.043 78.1753L144.439 76.8838C144.445 76.8351 144.452 76.7908 144.461 76.7509C144.467 76.7022 144.474 76.6579 144.482 76.618C144.501 76.547 144.498 76.4631 144.473 76.3661C144.442 76.2515 144.379 76.155 144.283 76.0766C144.213 76.0951 144.155 76.1245 144.109 76.1649C144.063 76.2052 144.024 76.2388 143.994 76.2657Z" fill="white"/>
<defs>
<linearGradient id="paint0_linear_1014_12" x1="86" y1="0" x2="86" y2="160" gradientUnits="userSpaceOnUse">
<stop stop-color="#DFDBDB"/>
<stop offset="1" stop-color="#4A4949"/>
</linearGradient>
</defs>
</svg>
